<svg width="1024" height="920" viewBox="0 0 1024 920" fill="none" xmlns="http://www.w3.org/2000/svg">
<g clip-path="url(#clip0_218_71)">
<rect width="1024" height="920" fill="white"/>
<rect width="1601" height="920" fill="#AC8EDD"/>
<path d="M249 62V22.448L255.464 28.592H241.32V17.2H264.104V62H249ZM277.478 62.64C275.089 62.64 273.083 61.872 271.462 60.336C269.841 58.7573 269.03 56.752 269.03 54.32C269.03 51.8453 269.841 49.8613 271.462 48.368C273.083 46.8747 275.089 46.128 277.478 46.128C279.867 46.128 281.873 46.8747 283.494 48.368C285.115 49.8613 285.926 51.8453 285.926 54.32C285.926 56.752 285.115 58.7573 283.494 60.336C281.873 61.872 279.867 62.64 277.478 62.64Z" fill="black"/>
<path d="M62.36 117L53.4 89H63.12L70.36 112.64H65.48L73.16 89H81.84L89 112.64H84.32L91.88 89H100.84L91.88 117H81.76L75.92 97.64H78.64L72.48 117H62.36ZM113.135 117.4C110.468 117.4 108.135 116.907 106.135 115.92C104.161 114.933 102.628 113.587 101.535 111.88C100.441 110.147 99.8947 108.2 99.8947 106.04C99.8947 103.827 100.428 101.867 101.495 100.16C102.588 98.4533 104.068 97.12 105.935 96.16C107.828 95.2 109.948 94.72 112.295 94.72C114.455 94.72 116.441 95.1467 118.255 96C120.095 96.8533 121.561 98.12 122.655 99.8C123.775 101.48 124.335 103.56 124.335 106.04C124.335 106.36 124.321 106.72 124.295 107.12C124.268 107.493 124.241 107.84 124.215 108.16H107.375V103.8H119.415L116.015 104.96C116.015 104.107 115.855 103.387 115.535 102.8C115.241 102.187 114.828 101.72 114.295 101.4C113.761 101.053 113.121 100.88 112.375 100.88C111.628 100.88 110.975 101.053 110.415 101.4C109.881 101.72 109.468 102.187 109.175 102.8C108.881 103.387 108.735 104.107 108.735 104.96V106.32C108.735 107.253 108.921 108.053 109.295 108.72C109.668 109.387 110.201 109.893 110.895 110.24C111.588 110.56 112.428 110.72 113.415 110.72C114.428 110.72 115.255 110.587 115.895 110.32C116.561 110.053 117.255 109.653 117.975 109.12L122.695 113.88C121.628 115.027 120.308 115.907 118.735 116.52C117.188 117.107 115.321 117.4 113.135 117.4ZM141.788 117.4C139.788 117.4 138.174 117 136.947 116.2C135.721 115.4 134.828 114.16 134.268 112.48C133.734 110.8 133.468 108.653 133.468 106.04C133.468 103.453 133.761 101.333 134.348 99.68C134.934 98 135.841 96.76 137.068 95.96C138.321 95.1333 139.894 94.72 141.788 94.72C143.708 94.72 145.468 95.1733 147.068 96.08C148.668 96.9867 149.948 98.2933 150.908 100C151.868 101.68 152.348 103.693 152.348 106.04C152.348 108.387 151.868 110.413 150.908 112.12C149.948 113.8 148.668 115.107 147.068 116.04C145.468 116.947 143.708 117.4 141.788 117.4ZM127.188 117V87.32H136.228V98.04L135.828 106.04L135.788 114.04V117H127.188ZM139.628 110.36C140.294 110.36 140.894 110.2 141.428 109.88C141.961 109.56 142.388 109.08 142.708 108.44C143.028 107.773 143.188 106.973 143.188 106.04C143.188 105.08 143.028 104.293 142.708 103.68C142.388 103.04 141.961 102.56 141.428 102.24C140.894 101.92 140.294 101.76 139.628 101.76C138.961 101.76 138.361 101.92 137.828 102.24C137.294 102.56 136.868 103.04 136.548 103.68C136.228 104.293 136.068 105.08 136.068 106.04C136.068 106.973 136.228 107.773 136.548 108.44C136.868 109.08 137.294 109.56 137.828 109.88C138.361 110.2 138.961 110.36 139.628 110.36ZM167.468 117V89H181.268C184.388 89 187.134 89.5733 189.508 90.72C191.881 91.84 193.734 93.44 195.068 95.52C196.401 97.6 197.068 100.08 197.068 102.96C197.068 105.867 196.401 108.373 195.068 110.48C193.734 112.56 191.881 114.173 189.508 115.32C187.134 116.44 184.388 117 181.268 117H167.468ZM176.908 109.64H180.868C182.201 109.64 183.361 109.387 184.348 108.88C185.361 108.373 186.148 107.627 186.708 106.64C187.268 105.627 187.548 104.4 187.548 102.96C187.548 101.547 187.268 100.347 186.708 99.36C186.148 98.3733 185.361 97.6267 184.348 97.12C183.361 96.6133 182.201 96.36 180.868 96.36H176.908V109.64ZM212.314 117.4C209.648 117.4 207.314 116.907 205.314 115.92C203.341 114.933 201.808 113.587 200.714 111.88C199.621 110.147 199.074 108.2 199.074 106.04C199.074 103.827 199.608 101.867 200.674 100.16C201.768 98.4533 203.248 97.12 205.114 96.16C207.008 95.2 209.128 94.72 211.474 94.72C213.634 94.72 215.621 95.1467 217.434 96C219.274 96.8533 220.741 98.12 221.834 99.8C222.954 101.48 223.514 103.56 223.514 106.04C223.514 106.36 223.501 106.72 223.474 107.12C223.448 107.493 223.421 107.84 223.394 108.16H206.554V103.8H218.594L215.194 104.96C215.194 104.107 215.034 103.387 214.714 102.8C214.421 102.187 214.008 101.72 213.474 101.4C212.941 101.053 212.301 100.88 211.554 100.88C210.808 100.88 210.154 101.053 209.594 101.4C209.061 101.72 208.648 102.187 208.354 102.8C208.061 103.387 207.914 104.107 207.914 104.96V106.32C207.914 107.253 208.101 108.053 208.474 108.72C208.848 109.387 209.381 109.893 210.074 110.24C210.768 110.56 211.608 110.72 212.594 110.72C213.608 110.72 214.434 110.587 215.074 110.32C215.741 110.053 216.434 109.653 217.154 109.12L221.874 113.88C220.808 115.027 219.488 115.907 217.914 116.52C216.368 117.107 214.501 117.4 212.314 117.4ZM234.927 117.4C233.061 117.4 231.221 117.2 229.407 116.8C227.594 116.4 226.127 115.88 225.007 115.24L227.487 109.28C228.527 109.893 229.727 110.373 231.087 110.72C232.474 111.067 233.821 111.24 235.127 111.24C236.221 111.24 236.954 111.147 237.327 110.96C237.727 110.773 237.927 110.52 237.927 110.2C237.927 109.88 237.701 109.653 237.247 109.52C236.794 109.36 236.194 109.24 235.447 109.16C234.701 109.08 233.874 108.987 232.967 108.88C232.087 108.747 231.194 108.56 230.287 108.32C229.381 108.08 228.554 107.72 227.807 107.24C227.061 106.76 226.461 106.12 226.007 105.32C225.554 104.493 225.327 103.453 225.327 102.2C225.327 100.813 225.741 99.56 226.567 98.44C227.421 97.32 228.674 96.4267 230.327 95.76C232.007 95.0667 234.074 94.72 236.527 94.72C238.127 94.72 239.727 94.8667 241.327 95.16C242.927 95.4533 244.301 95.9067 245.447 96.52L242.967 102.48C241.847 101.867 240.741 101.453 239.647 101.24C238.581 101 237.581 100.88 236.647 100.88C235.501 100.88 234.714 100.987 234.287 101.2C233.887 101.413 233.687 101.653 233.687 101.92C233.687 102.24 233.914 102.48 234.367 102.64C234.821 102.8 235.421 102.92 236.167 103C236.914 103.08 237.727 103.187 238.607 103.32C239.514 103.427 240.407 103.613 241.287 103.88C242.194 104.12 243.021 104.48 243.767 104.96C244.514 105.44 245.114 106.093 245.567 106.92C246.021 107.72 246.247 108.747 246.247 110C246.247 111.307 245.834 112.533 245.007 113.68C244.181 114.8 242.927 115.707 241.247 116.4C239.567 117.067 237.461 117.4 234.927 117.4ZM248.984 117V95.12H258.024V117H248.984ZM253.504 93.36C251.851 93.36 250.531 92.92 249.544 92.04C248.558 91.16 248.064 90.0667 248.064 88.76C248.064 87.4533 248.558 86.36 249.544 85.48C250.531 84.6 251.851 84.16 253.504 84.16C255.158 84.16 256.478 84.5733 257.464 85.4C258.451 86.2267 258.944 87.2933 258.944 88.6C258.944 89.9867 258.451 91.1333 257.464 92.04C256.478 92.92 255.158 93.36 253.504 93.36ZM273.151 125.16C270.991 125.16 268.965 124.933 267.071 124.48C265.178 124.027 263.551 123.347 262.191 122.44L265.231 116.28C266.085 116.947 267.165 117.467 268.471 117.84C269.805 118.24 271.058 118.44 272.231 118.44C274.098 118.44 275.431 118.04 276.231 117.24C277.031 116.467 277.431 115.347 277.431 113.88V112.04L277.831 105.24L277.871 98.44V95.12H286.471V112.64C286.471 116.88 285.298 120.027 282.951 122.08C280.605 124.133 277.338 125.16 273.151 125.16ZM271.391 115.8C269.551 115.8 267.831 115.373 266.231 114.52C264.631 113.64 263.338 112.413 262.351 110.84C261.365 109.267 260.871 107.4 260.871 105.24C260.871 103.08 261.365 101.213 262.351 99.64C263.338 98.0667 264.631 96.8533 266.231 96C267.831 95.1467 269.551 94.72 271.391 94.72C273.285 94.72 274.831 95.0933 276.031 95.84C277.258 96.5867 278.165 97.7467 278.751 99.32C279.338 100.867 279.631 102.84 279.631 105.24C279.631 107.64 279.338 109.627 278.751 111.2C278.165 112.747 277.258 113.907 276.031 114.68C274.831 115.427 273.285 115.8 271.391 115.8ZM273.791 108.76C274.511 108.76 275.151 108.613 275.711 108.32C276.271 108.027 276.711 107.613 277.031 107.08C277.351 106.547 277.511 105.933 277.511 105.24C277.511 104.52 277.351 103.907 277.031 103.4C276.711 102.867 276.271 102.467 275.711 102.2C275.151 101.907 274.511 101.76 273.791 101.76C273.098 101.76 272.458 101.907 271.871 102.2C271.311 102.467 270.858 102.867 270.511 103.4C270.191 103.907 270.031 104.52 270.031 105.24C270.031 105.933 270.191 106.547 270.511 107.08C270.858 107.613 271.311 108.027 271.871 108.32C272.458 108.613 273.098 108.76 273.791 108.76ZM305.669 94.72C307.349 94.72 308.869 95.0667 310.229 95.76C311.589 96.4267 312.655 97.48 313.429 98.92C314.229 100.36 314.629 102.227 314.629 104.52V117H305.589V106.08C305.589 104.72 305.349 103.76 304.869 103.2C304.389 102.613 303.735 102.32 302.909 102.32C302.295 102.32 301.722 102.467 301.189 102.76C300.682 103.027 300.269 103.48 299.949 104.12C299.655 104.76 299.509 105.627 299.509 106.72V117H290.469V95.12H299.069V101.52L297.349 99.68C298.202 98.0267 299.349 96.7867 300.789 95.96C302.255 95.1333 303.882 94.72 305.669 94.72Z" fill="black"/>
</g>
<defs>
<clipPath id="clip0_218_71">
<rect width="1024" height="920" fill="white"/>
</clipPath>
</defs>
</svg>
