<svg width="1601" height="920" viewBox="0 0 1601 920" fill="none" xmlns="http://www.w3.org/2000/svg">
<g clip-path="url(#clip0_211_79)">
<rect width="1601" height="920" fill="white"/>
<rect width="1624" height="920" fill="#AC8EDD"/>
<path d="M774 247V167.896L786.928 180.184H758.64V157.4H804.208V247H774ZM830.956 248.28C826.177 248.28 822.167 246.744 818.924 243.672C815.681 240.515 814.06 236.504 814.06 231.64C814.06 226.691 815.681 222.723 818.924 219.736C822.167 216.749 826.177 215.256 830.956 215.256C835.735 215.256 839.745 216.749 842.988 219.736C846.231 222.723 847.852 226.691 847.852 231.64C847.852 236.504 846.231 240.515 842.988 243.672C839.745 246.744 835.735 248.28 830.956 248.28Z" fill="black"/>
</g>
<defs>
<clipPath id="clip0_211_79">
<rect width="1601" height="920" fill="white"/>
</clipPath>
</defs>
</svg>
