<svg width="1601" height="920" viewBox="0 0 1601 920" fill="none" xmlns="http://www.w3.org/2000/svg">
<g clip-path="url(#clip0_211_105)">
<rect width="1601" height="920" fill="white"/>
<rect width="1624" height="920" fill="#836CA8"/>
<path d="M777.56 249.048C771.416 249.048 765.187 248.365 758.872 247C752.557 245.635 747.011 243.629 742.232 240.984L752.472 218.712C756.312 220.931 760.323 222.595 764.504 223.704C768.771 224.728 772.781 225.24 776.536 225.24C779.949 225.24 782.723 224.685 784.856 223.576C787.075 222.381 788.184 220.632 788.184 218.328C788.184 216.365 787.373 214.872 785.752 213.848C784.131 212.739 781.4 212.184 777.56 212.184H765.656V193.624L788.824 170.072L791.512 180.184H746.84V157.4H813.656V175.96L790.488 199.512L776.024 191.32H783.96C795.224 191.32 803.8 193.837 809.688 198.872C815.576 203.907 818.52 210.392 818.52 218.328C818.52 223.448 817.069 228.355 814.168 233.048C811.352 237.741 806.915 241.581 800.856 244.568C794.883 247.555 787.117 249.048 777.56 249.048ZM841.081 248.28C836.302 248.28 832.292 246.744 829.049 243.672C825.806 240.515 824.185 236.504 824.185 231.64C824.185 226.691 825.806 222.723 829.049 219.736C832.292 216.749 836.302 215.256 841.081 215.256C845.86 215.256 849.87 216.749 853.113 219.736C856.356 222.723 857.977 226.691 857.977 231.64C857.977 236.504 856.356 240.515 853.113 243.672C849.87 246.744 845.86 248.28 841.081 248.28Z" fill="black"/>
</g>
<defs>
<clipPath id="clip0_211_105">
<rect width="1601" height="920" fill="white"/>
</clipPath>
</defs>
</svg>
