<svg width="1601" height="920" viewBox="0 0 1601 920" fill="none" xmlns="http://www.w3.org/2000/svg">
<g clip-path="url(#clip0_211_118)">
<rect width="1601" height="920" fill="white"/>
<rect width="1624" height="920" fill="#6B5987"/>
<path d="M739.944 231.64V212.44L777.96 157.4H808.936L772.328 212.44L758.248 208.216H827.624V231.64H739.944ZM786.408 247V231.64L787.304 208.216V194.52H815.72V247H786.408ZM850.081 248.28C845.302 248.28 841.292 246.744 838.049 243.672C834.806 240.515 833.185 236.504 833.185 231.64C833.185 226.691 834.806 222.723 838.049 219.736C841.292 216.749 845.302 215.256 850.081 215.256C854.86 215.256 858.87 216.749 862.113 219.736C865.356 222.723 866.977 226.691 866.977 231.64C866.977 236.504 865.356 240.515 862.113 243.672C858.87 246.744 854.86 248.28 850.081 248.28Z" fill="black"/>
</g>
<defs>
<clipPath id="clip0_211_118">
<rect width="1601" height="920" fill="white"/>
</clipPath>
</defs>
</svg>
