<svg width="529" height="920" viewBox="0 0 529 920" fill="none" xmlns="http://www.w3.org/2000/svg">
<g clip-path="url(#clip0_218_67)">
<rect width="529" height="920" fill="#79639C"/>
<rect width="1601" height="920" fill="#79639C"/>
<path d="M248.472 54.32V44.72L267.48 17.2H282.968L264.664 44.72L257.624 42.608H292.312V54.32H248.472ZM271.704 62V54.32L272.152 42.608V35.76H286.36V62H271.704ZM303.541 62.64C301.151 62.64 299.146 61.872 297.525 60.336C295.903 58.7573 295.093 56.752 295.093 54.32C295.093 51.8453 295.903 49.8613 297.525 48.368C299.146 46.8747 301.151 46.128 303.541 46.128C305.93 46.128 307.935 46.8747 309.557 48.368C311.178 49.8613 311.989 51.8453 311.989 54.32C311.989 56.752 311.178 58.7573 309.557 60.336C307.935 61.872 305.93 62.64 303.541 62.64Z" fill="black"/>
<path d="M139.28 117V89H154.24C158.107 89 160.96 89.6933 162.8 91.08C164.64 92.44 165.56 94.1867 165.56 96.32C165.56 97.7333 165.16 99 164.36 100.12C163.587 101.213 162.453 102.08 160.96 102.72C159.467 103.36 157.627 103.68 155.44 103.68L156.24 101.52C158.427 101.52 160.307 101.827 161.88 102.44C163.48 103.053 164.707 103.947 165.56 105.12C166.44 106.267 166.88 107.653 166.88 109.28C166.88 111.707 165.867 113.6 163.84 114.96C161.84 116.32 158.907 117 155.04 117H139.28ZM148.56 110.4H154.24C155.28 110.4 156.053 110.213 156.56 109.84C157.093 109.467 157.36 108.92 157.36 108.2C157.36 107.48 157.093 106.933 156.56 106.56C156.053 106.187 155.28 106 154.24 106H147.92V99.76H152.96C154.027 99.76 154.8 99.5867 155.28 99.24C155.787 98.8667 156.04 98.3467 156.04 97.68C156.04 96.9867 155.787 96.4667 155.28 96.12C154.8 95.7733 154.027 95.6 152.96 95.6H148.56V110.4ZM169.938 117V95.12H178.538V101.72L177.138 99.84C177.804 98.1333 178.871 96.8533 180.338 96C181.804 95.1467 183.564 94.72 185.618 94.72V102.72C185.218 102.667 184.858 102.627 184.538 102.6C184.244 102.573 183.938 102.56 183.618 102.56C182.258 102.56 181.138 102.92 180.258 103.64C179.404 104.333 178.978 105.547 178.978 107.28V117H169.938ZM200.209 117V113.12L199.569 112.08V104.72C199.569 103.653 199.235 102.84 198.569 102.28C197.929 101.72 196.875 101.44 195.409 101.44C194.422 101.44 193.422 101.6 192.409 101.92C191.395 102.213 190.529 102.627 189.809 103.16L186.929 97.2C188.209 96.4 189.742 95.7867 191.529 95.36C193.315 94.9333 195.062 94.72 196.769 94.72C200.529 94.72 203.435 95.56 205.489 97.24C207.569 98.92 208.609 101.587 208.609 105.24V117H200.209ZM194.009 117.4C192.222 117.4 190.729 117.093 189.529 116.48C188.329 115.867 187.422 115.053 186.809 114.04C186.195 113 185.889 111.853 185.889 110.6C185.889 109.187 186.249 107.987 186.969 107C187.689 106.013 188.782 105.267 190.249 104.76C191.742 104.253 193.622 104 195.889 104H200.449V108.36H197.329C196.369 108.36 195.662 108.52 195.209 108.84C194.782 109.133 194.569 109.587 194.569 110.2C194.569 110.707 194.755 111.133 195.129 111.48C195.529 111.8 196.062 111.96 196.729 111.96C197.342 111.96 197.902 111.8 198.409 111.48C198.942 111.133 199.329 110.6 199.569 109.88L200.729 112.56C200.382 114.187 199.649 115.4 198.529 116.2C197.409 117 195.902 117.4 194.009 117.4ZM227.716 94.72C229.396 94.72 230.916 95.0667 232.276 95.76C233.636 96.4267 234.702 97.48 235.476 98.92C236.276 100.36 236.676 102.227 236.676 104.52V117H227.636V106.08C227.636 104.72 227.396 103.76 226.916 103.2C226.436 102.613 225.782 102.32 224.956 102.32C224.342 102.32 223.769 102.467 223.236 102.76C222.729 103.027 222.316 103.48 221.996 104.12C221.702 104.76 221.556 105.627 221.556 106.72V117H212.516V95.12H221.116V101.52L219.396 99.68C220.249 98.0267 221.396 96.7867 222.836 95.96C224.302 95.1333 225.929 94.72 227.716 94.72ZM250.592 117.4C248.699 117.4 246.939 116.947 245.312 116.04C243.712 115.107 242.432 113.8 241.472 112.12C240.512 110.413 240.032 108.387 240.032 106.04C240.032 103.693 240.512 101.68 241.472 100C242.432 98.2933 243.712 96.9867 245.312 96.08C246.939 95.1733 248.699 94.72 250.592 94.72C252.512 94.72 254.086 95.1333 255.312 95.96C256.539 96.76 257.446 98 258.032 99.68C258.619 101.333 258.912 103.453 258.912 106.04C258.912 108.653 258.632 110.8 258.072 112.48C257.539 114.16 256.659 115.4 255.432 116.2C254.232 117 252.619 117.4 250.592 117.4ZM252.752 110.36C253.419 110.36 254.019 110.2 254.552 109.88C255.086 109.56 255.512 109.08 255.832 108.44C256.152 107.773 256.312 106.973 256.312 106.04C256.312 105.08 256.152 104.293 255.832 103.68C255.512 103.04 255.086 102.56 254.552 102.24C254.019 101.92 253.419 101.76 252.752 101.76C252.086 101.76 251.486 101.92 250.952 102.24C250.419 102.56 249.992 103.04 249.672 103.68C249.352 104.293 249.192 105.08 249.192 106.04C249.192 106.973 249.352 107.773 249.672 108.44C249.992 109.08 250.419 109.56 250.952 109.88C251.486 110.2 252.086 110.36 252.752 110.36ZM256.592 117V114.04L256.552 106.04L256.152 98.04V87.32H265.192V117H256.592ZM269.195 117V95.12H278.235V117H269.195ZM273.715 93.36C272.062 93.36 270.742 92.92 269.755 92.04C268.769 91.16 268.275 90.0667 268.275 88.76C268.275 87.4533 268.769 86.36 269.755 85.48C270.742 84.6 272.062 84.16 273.715 84.16C275.369 84.16 276.689 84.5733 277.675 85.4C278.662 86.2267 279.155 87.2933 279.155 88.6C279.155 89.9867 278.662 91.1333 277.675 92.04C276.689 92.92 275.369 93.36 273.715 93.36ZM297.442 94.72C299.122 94.72 300.642 95.0667 302.002 95.76C303.362 96.4267 304.429 97.48 305.202 98.92C306.002 100.36 306.402 102.227 306.402 104.52V117H297.362V106.08C297.362 104.72 297.122 103.76 296.642 103.2C296.162 102.613 295.509 102.32 294.682 102.32C294.069 102.32 293.496 102.467 292.962 102.76C292.456 103.027 292.042 103.48 291.722 104.12C291.429 104.76 291.282 105.627 291.282 106.72V117H282.242V95.12H290.842V101.52L289.122 99.68C289.976 98.0267 291.122 96.7867 292.562 95.96C294.029 95.1333 295.656 94.72 297.442 94.72ZM321.839 125.16C319.679 125.16 317.652 124.933 315.759 124.48C313.865 124.027 312.239 123.347 310.879 122.44L313.919 116.28C314.772 116.947 315.852 117.467 317.159 117.84C318.492 118.24 319.745 118.44 320.919 118.44C322.785 118.44 324.119 118.04 324.919 117.24C325.719 116.467 326.119 115.347 326.119 113.88V112.04L326.519 105.24L326.559 98.44V95.12H335.159V112.64C335.159 116.88 333.985 120.027 331.639 122.08C329.292 124.133 326.025 125.16 321.839 125.16ZM320.079 115.8C318.239 115.8 316.519 115.373 314.919 114.52C313.319 113.64 312.025 112.413 311.039 110.84C310.052 109.267 309.559 107.4 309.559 105.24C309.559 103.08 310.052 101.213 311.039 99.64C312.025 98.0667 313.319 96.8533 314.919 96C316.519 95.1467 318.239 94.72 320.079 94.72C321.972 94.72 323.519 95.0933 324.719 95.84C325.945 96.5867 326.852 97.7467 327.439 99.32C328.025 100.867 328.319 102.84 328.319 105.24C328.319 107.64 328.025 109.627 327.439 111.2C326.852 112.747 325.945 113.907 324.719 114.68C323.519 115.427 321.972 115.8 320.079 115.8ZM322.479 108.76C323.199 108.76 323.839 108.613 324.399 108.32C324.959 108.027 325.399 107.613 325.719 107.08C326.039 106.547 326.199 105.933 326.199 105.24C326.199 104.52 326.039 103.907 325.719 103.4C325.399 102.867 324.959 102.467 324.399 102.2C323.839 101.907 323.199 101.76 322.479 101.76C321.785 101.76 321.145 101.907 320.559 102.2C319.999 102.467 319.545 102.867 319.199 103.4C318.879 103.907 318.719 104.52 318.719 105.24C318.719 105.933 318.879 106.547 319.199 107.08C319.545 107.613 319.999 108.027 320.559 108.32C321.145 108.613 321.785 108.76 322.479 108.76Z" fill="black"/>
</g>
<defs>
<clipPath id="clip0_218_67">
<rect width="529" height="920" fill="white"/>
</clipPath>
</defs>
</svg>
