<svg width="529" height="920" viewBox="0 0 529 920" fill="none" xmlns="http://www.w3.org/2000/svg">
<g clip-path="url(#clip0_218_77)">
<rect width="529" height="920" fill="white"/>
<rect width="1601" height="920" fill="#836CA8"/>
<path d="M264.28 63.024C261.208 63.024 258.093 62.6827 254.936 62C251.779 61.3173 249.005 60.3147 246.616 58.992L251.736 47.856C253.656 48.9653 255.661 49.7973 257.752 50.352C259.885 50.864 261.891 51.12 263.768 51.12C265.475 51.12 266.861 50.8427 267.928 50.288C269.037 49.6907 269.592 48.816 269.592 47.664C269.592 46.6827 269.187 45.936 268.376 45.424C267.565 44.8693 266.2 44.592 264.28 44.592H258.328V35.312L269.912 23.536L271.256 28.592H248.92V17.2H282.328V26.48L270.744 38.256L263.512 34.16H267.48C273.112 34.16 277.4 35.4187 280.344 37.936C283.288 40.4533 284.76 43.696 284.76 47.664C284.76 50.224 284.035 52.6773 282.584 55.024C281.176 57.3707 278.957 59.2907 275.928 60.784C272.941 62.2773 269.059 63.024 264.28 63.024ZM296.041 62.64C293.651 62.64 291.646 61.872 290.025 60.336C288.403 58.7573 287.593 56.752 287.593 54.32C287.593 51.8453 288.403 49.8613 290.025 48.368C291.646 46.8747 293.651 46.128 296.041 46.128C298.43 46.128 300.435 46.8747 302.057 48.368C303.678 49.8613 304.489 51.8453 304.489 54.32C304.489 56.752 303.678 58.7573 302.057 60.336C300.435 61.872 298.43 62.64 296.041 62.64Z" fill="black"/>
<path d="M46.08 100.92H58.4V108.04H46.08V100.92ZM46.72 117H37.28V89H60.04V96.12H46.72V117ZM73.9116 117.4C71.4316 117.4 69.2316 116.92 67.3116 115.96C65.4182 114.973 63.9249 113.627 62.8316 111.92C61.7382 110.213 61.1916 108.253 61.1916 106.04C61.1916 103.827 61.7382 101.867 62.8316 100.16C63.9249 98.4533 65.4182 97.12 67.3116 96.16C69.2316 95.2 71.4316 94.72 73.9116 94.72C76.3916 94.72 78.5916 95.2 80.5116 96.16C82.4316 97.12 83.9249 98.4533 84.9916 100.16C86.0849 101.867 86.6316 103.827 86.6316 106.04C86.6316 108.253 86.0849 110.213 84.9916 111.92C83.9249 113.627 82.4316 114.973 80.5116 115.96C78.5916 116.92 76.3916 117.4 73.9116 117.4ZM73.9116 110.36C74.5782 110.36 75.1782 110.2 75.7116 109.88C76.2449 109.56 76.6716 109.08 76.9916 108.44C77.3116 107.773 77.4716 106.973 77.4716 106.04C77.4716 105.08 77.3116 104.293 76.9916 103.68C76.6716 103.04 76.2449 102.56 75.7116 102.24C75.1782 101.92 74.5782 101.76 73.9116 101.76C73.2449 101.76 72.6449 101.92 72.1116 102.24C71.5782 102.56 71.1516 103.04 70.8316 103.68C70.5116 104.293 70.3516 105.08 70.3516 106.04C70.3516 106.973 70.5116 107.773 70.8316 108.44C71.1516 109.08 71.5782 109.56 72.1116 109.88C72.6449 110.2 73.2449 110.36 73.9116 110.36ZM100.021 117.4C97.0076 117.4 94.6609 116.68 92.9809 115.24C91.3009 113.773 90.4609 111.533 90.4609 108.52V90.2H99.5009V108.44C99.5009 109.107 99.6743 109.627 100.021 110C100.394 110.373 100.848 110.56 101.381 110.56C102.154 110.56 102.834 110.36 103.421 109.96L105.581 116.24C104.888 116.64 104.048 116.933 103.061 117.12C102.101 117.307 101.088 117.4 100.021 117.4ZM87.4609 102.92V96.32H103.981V102.92H87.4609ZM118.833 117.4C116.353 117.4 114.153 116.92 112.233 115.96C110.34 114.973 108.847 113.627 107.753 111.92C106.66 110.213 106.113 108.253 106.113 106.04C106.113 103.827 106.66 101.867 107.753 100.16C108.847 98.4533 110.34 97.12 112.233 96.16C114.153 95.2 116.353 94.72 118.833 94.72C121.313 94.72 123.513 95.2 125.433 96.16C127.353 97.12 128.847 98.4533 129.913 100.16C131.007 101.867 131.553 103.827 131.553 106.04C131.553 108.253 131.007 110.213 129.913 111.92C128.847 113.627 127.353 114.973 125.433 115.96C123.513 116.92 121.313 117.4 118.833 117.4ZM118.833 110.36C119.5 110.36 120.1 110.2 120.633 109.88C121.167 109.56 121.593 109.08 121.913 108.44C122.233 107.773 122.393 106.973 122.393 106.04C122.393 105.08 122.233 104.293 121.913 103.68C121.593 103.04 121.167 102.56 120.633 102.24C120.1 101.92 119.5 101.76 118.833 101.76C118.167 101.76 117.567 101.92 117.033 102.24C116.5 102.56 116.073 103.04 115.753 103.68C115.433 104.293 115.273 105.08 115.273 106.04C115.273 106.973 115.433 107.773 115.753 108.44C116.073 109.08 116.5 109.56 117.033 109.88C117.567 110.2 118.167 110.36 118.833 110.36ZM146.655 117V89H160.135C162.748 89 165.002 89.4267 166.895 90.28C168.815 91.1333 170.295 92.36 171.335 93.96C172.375 95.5333 172.895 97.4 172.895 99.56C172.895 101.72 172.375 103.587 171.335 105.16C170.295 106.733 168.815 107.96 166.895 108.84C165.002 109.693 162.748 110.12 160.135 110.12H151.895L156.095 106.08V117H146.655ZM156.095 107.12L151.895 102.84H159.535C160.842 102.84 161.802 102.547 162.415 101.96C163.055 101.373 163.375 100.573 163.375 99.56C163.375 98.5467 163.055 97.7467 162.415 97.16C161.802 96.5733 160.842 96.28 159.535 96.28H151.895L156.095 92V107.12ZM176.102 117V95.12H184.702V101.72L183.302 99.84C183.968 98.1333 185.035 96.8533 186.502 96C187.968 95.1467 189.728 94.72 191.782 94.72V102.72C191.382 102.667 191.022 102.627 190.702 102.6C190.408 102.573 190.102 102.56 189.782 102.56C188.422 102.56 187.302 102.92 186.422 103.64C185.568 104.333 185.142 105.547 185.142 107.28V117H176.102ZM205.708 117.4C203.228 117.4 201.028 116.92 199.108 115.96C197.215 114.973 195.722 113.627 194.628 111.92C193.535 110.213 192.988 108.253 192.988 106.04C192.988 103.827 193.535 101.867 194.628 100.16C195.722 98.4533 197.215 97.12 199.108 96.16C201.028 95.2 203.228 94.72 205.708 94.72C208.188 94.72 210.388 95.2 212.308 96.16C214.228 97.12 215.722 98.4533 216.788 100.16C217.882 101.867 218.428 103.827 218.428 106.04C218.428 108.253 217.882 110.213 216.788 111.92C215.722 113.627 214.228 114.973 212.308 115.96C210.388 116.92 208.188 117.4 205.708 117.4ZM205.708 110.36C206.375 110.36 206.975 110.2 207.508 109.88C208.042 109.56 208.468 109.08 208.788 108.44C209.108 107.773 209.268 106.973 209.268 106.04C209.268 105.08 209.108 104.293 208.788 103.68C208.468 103.04 208.042 102.56 207.508 102.24C206.975 101.92 206.375 101.76 205.708 101.76C205.042 101.76 204.442 101.92 203.908 102.24C203.375 102.56 202.948 103.04 202.628 103.68C202.308 104.293 202.148 105.08 202.148 106.04C202.148 106.973 202.308 107.773 202.628 108.44C202.948 109.08 203.375 109.56 203.908 109.88C204.442 110.2 205.042 110.36 205.708 110.36ZM230.858 117.4C228.964 117.4 227.204 116.947 225.578 116.04C223.978 115.107 222.698 113.8 221.738 112.12C220.778 110.413 220.298 108.387 220.298 106.04C220.298 103.693 220.778 101.68 221.738 100C222.698 98.2933 223.978 96.9867 225.578 96.08C227.204 95.1733 228.964 94.72 230.858 94.72C232.778 94.72 234.351 95.1333 235.578 95.96C236.804 96.76 237.711 98 238.298 99.68C238.884 101.333 239.178 103.453 239.178 106.04C239.178 108.653 238.898 110.8 238.338 112.48C237.804 114.16 236.924 115.4 235.698 116.2C234.498 117 232.884 117.4 230.858 117.4ZM233.018 110.36C233.684 110.36 234.284 110.2 234.818 109.88C235.351 109.56 235.778 109.08 236.098 108.44C236.418 107.773 236.578 106.973 236.578 106.04C236.578 105.08 236.418 104.293 236.098 103.68C235.778 103.04 235.351 102.56 234.818 102.24C234.284 101.92 233.684 101.76 233.018 101.76C232.351 101.76 231.751 101.92 231.218 102.24C230.684 102.56 230.258 103.04 229.938 103.68C229.618 104.293 229.458 105.08 229.458 106.04C229.458 106.973 229.618 107.773 229.938 108.44C230.258 109.08 230.684 109.56 231.218 109.88C231.751 110.2 232.351 110.36 233.018 110.36ZM236.858 117V114.04L236.818 106.04L236.418 98.04V87.32H245.458V117H236.858ZM258.581 117.4C256.848 117.4 255.274 117.053 253.861 116.36C252.474 115.64 251.381 114.533 250.581 113.04C249.781 111.52 249.381 109.573 249.381 107.2V95.12H258.421V105.64C258.421 107.187 258.674 108.267 259.181 108.88C259.688 109.493 260.381 109.8 261.261 109.8C261.794 109.8 262.288 109.667 262.741 109.4C263.221 109.107 263.608 108.64 263.901 108C264.194 107.333 264.341 106.467 264.341 105.4V95.12H273.381V117H264.781V110.68L266.501 112.4C265.728 114.107 264.621 115.373 263.181 116.2C261.768 117 260.234 117.4 258.581 117.4ZM289.151 117.4C286.644 117.4 284.417 116.92 282.471 115.96C280.524 115 278.991 113.667 277.871 111.96C276.777 110.227 276.231 108.253 276.231 106.04C276.231 103.827 276.777 101.867 277.871 100.16C278.991 98.4533 280.524 97.12 282.471 96.16C284.417 95.2 286.644 94.72 289.151 94.72C291.817 94.72 294.097 95.2933 295.991 96.44C297.884 97.5867 299.191 99.1733 299.911 101.2L292.911 104.64C292.457 103.627 291.897 102.893 291.231 102.44C290.591 101.987 289.884 101.76 289.111 101.76C288.444 101.76 287.817 101.92 287.231 102.24C286.671 102.56 286.217 103.04 285.871 103.68C285.551 104.293 285.391 105.08 285.391 106.04C285.391 107 285.551 107.8 285.871 108.44C286.217 109.08 286.671 109.56 287.231 109.88C287.817 110.2 288.444 110.36 289.111 110.36C289.884 110.36 290.591 110.133 291.231 109.68C291.897 109.227 292.457 108.493 292.911 107.48L299.911 110.92C299.191 112.947 297.884 114.533 295.991 115.68C294.097 116.827 291.817 117.4 289.151 117.4ZM312.951 117.4C309.937 117.4 307.591 116.68 305.911 115.24C304.231 113.773 303.391 111.533 303.391 108.52V90.2H312.431V108.44C312.431 109.107 312.604 109.627 312.951 110C313.324 110.373 313.777 110.56 314.311 110.56C315.084 110.56 315.764 110.36 316.351 109.96L318.511 116.24C317.817 116.64 316.977 116.933 315.991 117.12C315.031 117.307 314.017 117.4 312.951 117.4ZM300.391 102.92V96.32H316.911V102.92H300.391ZM331.763 117.4C329.283 117.4 327.083 116.92 325.163 115.96C323.27 114.973 321.776 113.627 320.683 111.92C319.59 110.213 319.043 108.253 319.043 106.04C319.043 103.827 319.59 101.867 320.683 100.16C321.776 98.4533 323.27 97.12 325.163 96.16C327.083 95.2 329.283 94.72 331.763 94.72C334.243 94.72 336.443 95.2 338.363 96.16C340.283 97.12 341.776 98.4533 342.843 100.16C343.936 101.867 344.483 103.827 344.483 106.04C344.483 108.253 343.936 110.213 342.843 111.92C341.776 113.627 340.283 114.973 338.363 115.96C336.443 116.92 334.243 117.4 331.763 117.4ZM331.763 110.36C332.43 110.36 333.03 110.2 333.563 109.88C334.096 109.56 334.523 109.08 334.843 108.44C335.163 107.773 335.323 106.973 335.323 106.04C335.323 105.08 335.163 104.293 334.843 103.68C334.523 103.04 334.096 102.56 333.563 102.24C333.03 101.92 332.43 101.76 331.763 101.76C331.096 101.76 330.496 101.92 329.963 102.24C329.43 102.56 329.003 103.04 328.683 103.68C328.363 104.293 328.203 105.08 328.203 106.04C328.203 106.973 328.363 107.773 328.683 108.44C329.003 109.08 329.43 109.56 329.963 109.88C330.496 110.2 331.096 110.36 331.763 110.36Z" fill="black"/>
</g>
<defs>
<clipPath id="clip0_218_77">
<rect width="529" height="920" fill="white"/>
</clipPath>
</defs>
</svg>
