<svg width="1601" height="920" viewBox="0 0 1601 920" fill="none" xmlns="http://www.w3.org/2000/svg">
<g clip-path="url(#clip0_211_92)">
<rect width="1601" height="920" fill="white"/>
<rect width="1624" height="920" fill="#967CBF"/>
<path d="M744.584 247V228.44L776.968 198.488C779.016 196.525 780.509 194.819 781.448 193.368C782.472 191.917 783.155 190.637 783.496 189.528C783.837 188.333 784.008 187.224 784.008 186.2C784.008 183.981 783.283 182.275 781.832 181.08C780.381 179.8 778.205 179.16 775.304 179.16C772.659 179.16 770.141 179.885 767.752 181.336C765.363 182.701 763.485 184.749 762.12 187.48L739.336 176.088C742.579 169.944 747.443 164.952 753.928 161.112C760.413 157.272 768.477 155.352 778.12 155.352C785.203 155.352 791.475 156.504 796.936 158.808C802.397 161.112 806.664 164.355 809.736 168.536C812.808 172.717 814.344 177.667 814.344 183.384C814.344 186.285 813.96 189.187 813.192 192.088C812.509 194.989 811.059 198.061 808.84 201.304C806.621 204.461 803.336 208.003 798.984 211.928L774.664 234.072L769.928 223.576H816.392V247H744.584ZM839.581 248.28C834.802 248.28 830.792 246.744 827.549 243.672C824.306 240.515 822.685 236.504 822.685 231.64C822.685 226.691 824.306 222.723 827.549 219.736C830.792 216.749 834.802 215.256 839.581 215.256C844.36 215.256 848.37 216.749 851.613 219.736C854.856 222.723 856.477 226.691 856.477 231.64C856.477 236.504 854.856 240.515 851.613 243.672C848.37 246.744 844.36 248.28 839.581 248.28Z" fill="black"/>
</g>
<defs>
<clipPath id="clip0_211_92">
<rect width="1601" height="920" fill="white"/>
</clipPath>
</defs>
</svg>
