<svg width="1024" height="920" viewBox="0 0 1024 920" fill="none" xmlns="http://www.w3.org/2000/svg">
<g clip-path="url(#clip0_218_74)">
<rect width="1024" height="920" fill="white"/>
<rect width="1601" height="920" fill="#967CBF"/>
<path d="M243.792 62V52.72L259.984 37.744C261.008 36.7627 261.755 35.9093 262.224 35.184C262.736 34.4587 263.077 33.8187 263.248 33.264C263.419 32.6667 263.504 32.112 263.504 31.6C263.504 30.4907 263.141 29.6373 262.416 29.04C261.691 28.4 260.603 28.08 259.152 28.08C257.829 28.08 256.571 28.4427 255.376 29.168C254.181 29.8507 253.243 30.8747 252.56 32.24L241.168 26.544C242.789 23.472 245.221 20.976 248.464 19.056C251.707 17.136 255.739 16.176 260.56 16.176C264.101 16.176 267.237 16.752 269.968 17.904C272.699 19.056 274.832 20.6773 276.368 22.768C277.904 24.8587 278.672 27.3333 278.672 30.192C278.672 31.6427 278.48 33.0933 278.096 34.544C277.755 35.9947 277.029 37.5307 275.92 39.152C274.811 40.7307 273.168 42.5013 270.992 44.464L258.832 55.536L256.464 50.288H279.696V62H243.792ZM291.291 62.64C288.901 62.64 286.896 61.872 285.275 60.336C283.653 58.7573 282.843 56.752 282.843 54.32C282.843 51.8453 283.653 49.8613 285.275 48.368C286.896 46.8747 288.901 46.128 291.291 46.128C293.68 46.128 295.685 46.8747 297.307 48.368C298.928 49.8613 299.739 51.8453 299.739 54.32C299.739 56.752 298.928 58.7573 297.307 60.336C295.685 61.872 293.68 62.64 291.291 62.64Z" fill="black"/>
<path d="M118.08 100.92H130.4V108.04H118.08V100.92ZM118.72 117H109.28V89H132.04V96.12H118.72V117ZM145.912 117.4C143.432 117.4 141.232 116.92 139.312 115.96C137.418 114.973 135.925 113.627 134.832 111.92C133.738 110.213 133.192 108.253 133.192 106.04C133.192 103.827 133.738 101.867 134.832 100.16C135.925 98.4533 137.418 97.12 139.312 96.16C141.232 95.2 143.432 94.72 145.912 94.72C148.392 94.72 150.592 95.2 152.512 96.16C154.432 97.12 155.925 98.4533 156.992 100.16C158.085 101.867 158.632 103.827 158.632 106.04C158.632 108.253 158.085 110.213 156.992 111.92C155.925 113.627 154.432 114.973 152.512 115.96C150.592 116.92 148.392 117.4 145.912 117.4ZM145.912 110.36C146.578 110.36 147.178 110.2 147.712 109.88C148.245 109.56 148.672 109.08 148.992 108.44C149.312 107.773 149.472 106.973 149.472 106.04C149.472 105.08 149.312 104.293 148.992 103.68C148.672 103.04 148.245 102.56 147.712 102.24C147.178 101.92 146.578 101.76 145.912 101.76C145.245 101.76 144.645 101.92 144.112 102.24C143.578 102.56 143.152 103.04 142.832 103.68C142.512 104.293 142.352 105.08 142.352 106.04C142.352 106.973 142.512 107.773 142.832 108.44C143.152 109.08 143.578 109.56 144.112 109.88C144.645 110.2 145.245 110.36 145.912 110.36ZM172.021 117.4C169.008 117.4 166.661 116.68 164.981 115.24C163.301 113.773 162.461 111.533 162.461 108.52V90.2H171.501V108.44C171.501 109.107 171.674 109.627 172.021 110C172.394 110.373 172.848 110.56 173.381 110.56C174.154 110.56 174.834 110.36 175.421 109.96L177.581 116.24C176.888 116.64 176.048 116.933 175.061 117.12C174.101 117.307 173.088 117.4 172.021 117.4ZM159.461 102.92V96.32H175.981V102.92H159.461ZM190.833 117.4C188.353 117.4 186.153 116.92 184.233 115.96C182.34 114.973 180.847 113.627 179.753 111.92C178.66 110.213 178.113 108.253 178.113 106.04C178.113 103.827 178.66 101.867 179.753 100.16C180.847 98.4533 182.34 97.12 184.233 96.16C186.153 95.2 188.353 94.72 190.833 94.72C193.313 94.72 195.513 95.2 197.433 96.16C199.353 97.12 200.847 98.4533 201.913 100.16C203.007 101.867 203.553 103.827 203.553 106.04C203.553 108.253 203.007 110.213 201.913 111.92C200.847 113.627 199.353 114.973 197.433 115.96C195.513 116.92 193.313 117.4 190.833 117.4ZM190.833 110.36C191.5 110.36 192.1 110.2 192.633 109.88C193.167 109.56 193.593 109.08 193.913 108.44C194.233 107.773 194.393 106.973 194.393 106.04C194.393 105.08 194.233 104.293 193.913 103.68C193.593 103.04 193.167 102.56 192.633 102.24C192.1 101.92 191.5 101.76 190.833 101.76C190.167 101.76 189.567 101.92 189.033 102.24C188.5 102.56 188.073 103.04 187.753 103.68C187.433 104.293 187.273 105.08 187.273 106.04C187.273 106.973 187.433 107.773 187.753 108.44C188.073 109.08 188.5 109.56 189.033 109.88C189.567 110.2 190.167 110.36 190.833 110.36ZM217.503 125.16C215.343 125.16 213.316 124.933 211.423 124.48C209.529 124.027 207.903 123.347 206.543 122.44L209.583 116.28C210.436 116.947 211.516 117.467 212.823 117.84C214.156 118.24 215.409 118.44 216.583 118.44C218.449 118.44 219.783 118.04 220.583 117.24C221.383 116.467 221.783 115.347 221.783 113.88V112.04L222.183 105.24L222.223 98.44V95.12H230.823V112.64C230.823 116.88 229.649 120.027 227.303 122.08C224.956 124.133 221.689 125.16 217.503 125.16ZM215.743 115.8C213.903 115.8 212.183 115.373 210.583 114.52C208.983 113.64 207.689 112.413 206.703 110.84C205.716 109.267 205.223 107.4 205.223 105.24C205.223 103.08 205.716 101.213 206.703 99.64C207.689 98.0667 208.983 96.8533 210.583 96C212.183 95.1467 213.903 94.72 215.743 94.72C217.636 94.72 219.183 95.0933 220.383 95.84C221.609 96.5867 222.516 97.7467 223.103 99.32C223.689 100.867 223.983 102.84 223.983 105.24C223.983 107.64 223.689 109.627 223.103 111.2C222.516 112.747 221.609 113.907 220.383 114.68C219.183 115.427 217.636 115.8 215.743 115.8ZM218.143 108.76C218.863 108.76 219.503 108.613 220.063 108.32C220.623 108.027 221.063 107.613 221.383 107.08C221.703 106.547 221.863 105.933 221.863 105.24C221.863 104.52 221.703 103.907 221.383 103.4C221.063 102.867 220.623 102.467 220.063 102.2C219.503 101.907 218.863 101.76 218.143 101.76C217.449 101.76 216.809 101.907 216.223 102.2C215.663 102.467 215.209 102.867 214.863 103.4C214.543 103.907 214.383 104.52 214.383 105.24C214.383 105.933 214.543 106.547 214.863 107.08C215.209 107.613 215.663 108.027 216.223 108.32C216.809 108.613 217.449 108.76 218.143 108.76ZM234.82 117V95.12H243.42V101.72L242.02 99.84C242.687 98.1333 243.754 96.8533 245.22 96C246.687 95.1467 248.447 94.72 250.5 94.72V102.72C250.1 102.667 249.74 102.627 249.42 102.6C249.127 102.573 248.82 102.56 248.5 102.56C247.14 102.56 246.02 102.92 245.14 103.64C244.287 104.333 243.86 105.547 243.86 107.28V117H234.82ZM265.092 117V113.12L264.452 112.08V104.72C264.452 103.653 264.118 102.84 263.452 102.28C262.812 101.72 261.758 101.44 260.292 101.44C259.305 101.44 258.305 101.6 257.292 101.92C256.278 102.213 255.412 102.627 254.692 103.16L251.812 97.2C253.092 96.4 254.625 95.7867 256.412 95.36C258.198 94.9333 259.945 94.72 261.652 94.72C265.412 94.72 268.318 95.56 270.372 97.24C272.452 98.92 273.492 101.587 273.492 105.24V117H265.092ZM258.892 117.4C257.105 117.4 255.612 117.093 254.412 116.48C253.212 115.867 252.305 115.053 251.692 114.04C251.078 113 250.772 111.853 250.772 110.6C250.772 109.187 251.132 107.987 251.852 107C252.572 106.013 253.665 105.267 255.132 104.76C256.625 104.253 258.505 104 260.772 104H265.332V108.36H262.212C261.252 108.36 260.545 108.52 260.092 108.84C259.665 109.133 259.452 109.587 259.452 110.2C259.452 110.707 259.638 111.133 260.012 111.48C260.412 111.8 260.945 111.96 261.612 111.96C262.225 111.96 262.785 111.8 263.292 111.48C263.825 111.133 264.212 110.6 264.452 109.88L265.612 112.56C265.265 114.187 264.532 115.4 263.412 116.2C262.292 117 260.785 117.4 258.892 117.4ZM278.398 117V96.2C278.398 93.3733 279.238 91.12 280.918 89.44C282.625 87.76 285.038 86.92 288.158 86.92C289.118 86.92 290.078 87.0133 291.038 87.2C292.025 87.36 292.852 87.6267 293.518 88L291.358 94.28C291.065 94.1467 290.745 94.0267 290.398 93.92C290.052 93.8133 289.692 93.76 289.318 93.76C288.678 93.76 288.158 93.96 287.758 94.36C287.358 94.76 287.158 95.4 287.158 96.28V97.32L287.438 101.04V117H278.398ZM275.398 102.92V96.32H291.918V102.92H275.398ZM294.82 117V95.12H303.86V117H294.82ZM295.14 92.72L300.42 86.32H309.02L301.14 92.72H295.14ZM321.107 117V113.12L320.467 112.08V104.72C320.467 103.653 320.134 102.84 319.467 102.28C318.827 101.72 317.774 101.44 316.307 101.44C315.321 101.44 314.321 101.6 313.307 101.92C312.294 102.213 311.427 102.627 310.707 103.16L307.827 97.2C309.107 96.4 310.641 95.7867 312.427 95.36C314.214 94.9333 315.961 94.72 317.667 94.72C321.427 94.72 324.334 95.56 326.387 97.24C328.467 98.92 329.507 101.587 329.507 105.24V117H321.107ZM314.907 117.4C313.121 117.4 311.627 117.093 310.427 116.48C309.227 115.867 308.321 115.053 307.707 114.04C307.094 113 306.787 111.853 306.787 110.6C306.787 109.187 307.147 107.987 307.867 107C308.587 106.013 309.681 105.267 311.147 104.76C312.641 104.253 314.521 104 316.787 104H321.347V108.36H318.227C317.267 108.36 316.561 108.52 316.107 108.84C315.681 109.133 315.467 109.587 315.467 110.2C315.467 110.707 315.654 111.133 316.027 111.48C316.427 111.8 316.961 111.96 317.627 111.96C318.241 111.96 318.801 111.8 319.307 111.48C319.841 111.133 320.227 110.6 320.467 109.88L321.627 112.56C321.281 114.187 320.547 115.4 319.427 116.2C318.307 117 316.801 117.4 314.907 117.4Z" fill="black"/>
</g>
<defs>
<clipPath id="clip0_218_74">
<rect width="1024" height="920" fill="white"/>
</clipPath>
</defs>
</svg>
