<svg width="1899" height="613" viewBox="0 0 1899 613" fill="none" xmlns="http://www.w3.org/2000/svg">
<path d="M133.8 368C123.133 368 115.067 365 109.6 359C104.133 352.867 101.4 344.133 101.4 332.8V324.8H122.2V334.4C122.2 343.467 126 348 133.6 348C137.333 348 140.133 346.933 142 344.8C144 342.533 145 338.933 145 334C145 328.133 143.667 323 141 318.6C138.333 314.067 133.4 308.667 126.2 302.4C117.133 294.4 110.8 287.2 107.2 280.8C103.6 274.267 101.8 266.933 101.8 258.8C101.8 247.733 104.6 239.2 110.2 233.2C115.8 227.067 123.933 224 134.6 224C145.133 224 153.067 227.067 158.4 233.2C163.867 239.2 166.6 247.867 166.6 259.2V265H145.8V257.8C145.8 253 144.867 249.533 143 247.4C141.133 245.133 138.4 244 134.8 244C127.467 244 123.8 248.467 123.8 257.4C123.8 262.467 125.133 267.2 127.8 271.6C130.6 276 135.6 281.333 142.8 287.6C152 295.6 158.333 302.867 161.8 309.4C165.267 315.933 167 323.6 167 332.4C167 343.867 164.133 352.667 158.4 358.8C152.8 364.933 144.6 368 133.8 368ZM289.814 246H266.814V226H334.814V246H311.814V366H289.814V246ZM470.466 368C459.799 368 451.666 365 446.066 359C440.466 352.867 437.666 344.133 437.666 332.8V226H459.666V334.4C459.666 339.2 460.599 342.667 462.466 344.8C464.466 346.933 467.266 348 470.866 348C474.466 348 477.199 346.933 479.066 344.8C481.066 342.667 482.066 339.2 482.066 334.4V226H503.266V332.8C503.266 344.133 500.466 352.867 494.866 359C489.266 365 481.132 368 470.466 368ZM611.934 226H645.534C656.468 226 664.668 228.933 670.134 234.8C675.601 240.667 678.334 249.267 678.334 260.6V331.4C678.334 342.733 675.601 351.333 670.134 357.2C664.668 363.067 656.468 366 645.534 366H611.934V226ZM645.134 346C648.734 346 651.468 344.933 653.334 342.8C655.334 340.667 656.334 337.2 656.334 332.4V259.6C656.334 254.8 655.334 251.333 653.334 249.2C651.468 247.067 648.734 246 645.134 246H633.934V346H645.134ZM786.184 226H808.184V366H786.184V226ZM949.461 368C938.661 368 930.394 364.933 924.661 358.8C918.928 352.667 916.061 344 916.061 332.8V259.2C916.061 248 918.928 239.333 924.661 233.2C930.394 227.067 938.661 224 949.461 224C960.261 224 968.528 227.067 974.261 233.2C979.994 239.333 982.861 248 982.861 259.2V332.8C982.861 344 979.994 352.667 974.261 358.8C968.528 364.933 960.261 368 949.461 368ZM949.461 348C957.061 348 960.861 343.4 960.861 334.2V257.8C960.861 248.6 957.061 244 949.461 244C941.861 244 938.061 248.6 938.061 257.8V334.2C938.061 343.4 941.861 348 949.461 348ZM1215.77 226H1243.37L1264.77 309.8H1265.17V226H1284.77V366H1262.17L1235.77 263.8H1235.37V366H1215.77V226ZM1425.92 368C1415.12 368 1406.86 364.933 1401.12 358.8C1395.39 352.667 1392.52 344 1392.52 332.8V259.2C1392.52 248 1395.39 239.333 1401.12 233.2C1406.86 227.067 1415.12 224 1425.92 224C1436.72 224 1444.99 227.067 1450.72 233.2C1456.46 239.333 1459.32 248 1459.32 259.2V332.8C1459.32 344 1456.46 352.667 1450.72 358.8C1444.99 364.933 1436.72 368 1425.92 368ZM1425.92 348C1433.52 348 1437.32 343.4 1437.32 334.2V257.8C1437.32 248.6 1433.52 244 1425.92 244C1418.32 244 1414.52 248.6 1414.52 257.8V334.2C1414.52 343.4 1418.32 348 1425.92 348ZM1567.2 226H1589.2V346H1625.4V366H1567.2V226ZM1746.73 226H1776.53L1799.33 366H1777.33L1773.33 338.2V338.6H1748.33L1744.33 366H1723.93L1746.73 226ZM1770.73 319.6L1760.93 250.4H1760.53L1750.93 319.6H1770.73Z" fill="black"/>
</svg>
