<svg width="42" height="197" viewBox="0 0 42 197" fill="none" xmlns="http://www.w3.org/2000/svg">
<path d="M33 196.72H5L5 181.76C5 177.893 5.69333 175.04 7.08 173.2C8.44 171.36 10.1867 170.44 12.32 170.44C13.7333 170.44 15 170.84 16.12 171.64C17.2133 172.413 18.08 173.547 18.72 175.04C19.36 176.533 19.68 178.373 19.68 180.56L17.52 179.76C17.52 177.573 17.8267 175.693 18.44 174.12C19.0533 172.52 19.9467 171.293 21.12 170.44C22.2667 169.56 23.6533 169.12 25.28 169.12C27.7067 169.12 29.6 170.133 30.96 172.16C32.32 174.16 33 177.093 33 180.96V196.72ZM26.4 187.44V181.76C26.4 180.72 26.2133 179.947 25.84 179.44C25.4667 178.907 24.92 178.64 24.2 178.64C23.48 178.64 22.9333 178.907 22.56 179.44C22.1867 179.947 22 180.72 22 181.76V188.08H15.76V183.04C15.76 181.973 15.5867 181.2 15.24 180.72C14.8667 180.213 14.3467 179.96 13.68 179.96C12.9867 179.96 12.4667 180.213 12.12 180.72C11.7733 181.2 11.6 181.973 11.6 183.04V187.44H26.4ZM33 166.062H11.12V157.462H17.72L15.84 158.862C14.1333 158.196 12.8533 157.129 12 155.662C11.1467 154.196 10.72 152.436 10.72 150.382H18.72C18.6667 150.782 18.6267 151.142 18.6 151.462C18.5733 151.756 18.56 152.062 18.56 152.382C18.56 153.742 18.92 154.862 19.64 155.742C20.3333 156.596 21.5467 157.022 23.28 157.022H33V166.062ZM33 135.791H29.12L28.08 136.431H20.72C19.6533 136.431 18.84 136.765 18.28 137.431C17.72 138.071 17.44 139.125 17.44 140.591C17.44 141.578 17.6 142.578 17.92 143.591C18.2133 144.605 18.6267 145.471 19.16 146.191L13.2 149.071C12.4 147.791 11.7867 146.258 11.36 144.471C10.9333 142.685 10.72 140.938 10.72 139.231C10.72 135.471 11.56 132.565 13.24 130.511C14.92 128.431 17.5867 127.391 21.24 127.391H33V135.791ZM33.4 141.991C33.4 143.778 33.0933 145.271 32.48 146.471C31.8667 147.671 31.0533 148.578 30.04 149.191C29 149.805 27.8533 150.111 26.6 150.111C25.1867 150.111 23.9867 149.751 23 149.031C22.0133 148.311 21.2667 147.218 20.76 145.751C20.2533 144.258 20 142.378 20 140.111V135.551H24.36V138.671C24.36 139.631 24.52 140.338 24.84 140.791C25.1333 141.218 25.5867 141.431 26.2 141.431C26.7067 141.431 27.1333 141.245 27.48 140.871C27.8 140.471 27.96 139.938 27.96 139.271C27.96 138.658 27.8 138.098 27.48 137.591C27.1333 137.058 26.6 136.671 25.88 136.431L28.56 135.271C30.1867 135.618 31.4 136.351 32.2 137.471C33 138.591 33.4 140.098 33.4 141.991ZM10.72 108.284C10.72 106.604 11.0667 105.084 11.76 103.724C12.4267 102.364 13.48 101.298 14.92 100.524C16.36 99.7244 18.2267 99.3244 20.52 99.3244H33V108.364H22.08C20.72 108.364 19.76 108.604 19.2 109.084C18.6133 109.564 18.32 110.218 18.32 111.044C18.32 111.658 18.4667 112.231 18.76 112.764C19.0267 113.271 19.48 113.684 20.12 114.004C20.76 114.298 21.6267 114.444 22.72 114.444H33V123.484H11.12V114.884H17.52L15.68 116.604C14.0267 115.751 12.7867 114.604 11.96 113.164C11.1333 111.698 10.72 110.071 10.72 108.284ZM33.4 85.4078C33.4 87.3011 32.9467 89.0611 32.04 90.6878C31.1067 92.2878 29.8 93.5678 28.12 94.5278C26.4133 95.4878 24.3867 95.9678 22.04 95.9678C19.6933 95.9678 17.68 95.4878 16 94.5278C14.2933 93.5678 12.9867 92.2878 12.08 90.6878C11.1733 89.0611 10.72 87.3011 10.72 85.4078C10.72 83.4878 11.1333 81.9145 11.96 80.6878C12.76 79.4611 14 78.5545 15.68 77.9678C17.3333 77.3811 19.4533 77.0878 22.04 77.0878C24.6533 77.0878 26.8 77.3678 28.48 77.9278C30.16 78.4611 31.4 79.3411 32.2 80.5678C33 81.7678 33.4 83.3811 33.4 85.4078ZM26.36 83.2478C26.36 82.5811 26.2 81.9811 25.88 81.4478C25.56 80.9145 25.08 80.4878 24.44 80.1678C23.7733 79.8478 22.9733 79.6878 22.04 79.6878C21.08 79.6878 20.2933 79.8478 19.68 80.1678C19.04 80.4878 18.56 80.9145 18.24 81.4478C17.92 81.9811 17.76 82.5811 17.76 83.2478C17.76 83.9145 17.92 84.5145 18.24 85.0478C18.56 85.5811 19.04 86.0078 19.68 86.3278C20.2933 86.6478 21.08 86.8078 22.04 86.8078C22.9733 86.8078 23.7733 86.6478 24.44 86.3278C25.08 86.0078 25.56 85.5811 25.88 85.0478C26.2 84.5145 26.36 83.9145 26.36 83.2478ZM33 79.4078H30.04L22.04 79.4478L14.04 79.8478H3.32V70.8078H33V79.4078ZM33 66.8047H11.12V57.7647H33V66.8047ZM9.36 62.2847C9.36 63.938 8.92 65.258 8.04 66.2447C7.16 67.2314 6.06667 67.7247 4.76 67.7247C3.45333 67.7247 2.36 67.2314 1.48 66.2447C0.599998 65.258 0.159998 63.938 0.159998 62.2847C0.159998 60.6314 0.573332 59.3114 1.4 58.3247C2.22666 57.338 3.29333 56.8447 4.6 56.8447C5.98666 56.8447 7.13333 57.338 8.04 58.3247C8.92 59.3114 9.36 60.6314 9.36 62.2847ZM10.72 38.5578C10.72 36.8778 11.0667 35.3578 11.76 33.9978C12.4267 32.6378 13.48 31.5711 14.92 30.7978C16.36 29.9978 18.2267 29.5978 20.52 29.5978H33V38.6378H22.08C20.72 38.6378 19.76 38.8778 19.2 39.3578C18.6133 39.8378 18.32 40.4911 18.32 41.3178C18.32 41.9311 18.4667 42.5045 18.76 43.0378C19.0267 43.5445 19.48 43.9578 20.12 44.2778C20.76 44.5711 21.6267 44.7178 22.72 44.7178H33V53.7578H11.12V45.1578H17.52L15.68 46.8778C14.0267 46.0245 12.7867 44.8778 11.96 43.4378C11.1333 41.9711 10.72 40.3445 10.72 38.5578ZM41.16 14.1612C41.16 16.3212 40.9333 18.3479 40.48 20.2412C40.0267 22.1346 39.3467 23.7612 38.44 25.1212L32.28 22.0812C32.9467 21.2279 33.4667 20.1479 33.84 18.8412C34.24 17.5079 34.44 16.2546 34.44 15.0812C34.44 13.2146 34.04 11.8812 33.24 11.0812C32.4667 10.2812 31.3467 9.88125 29.88 9.88125H28.04L21.24 9.48125L14.44 9.44125H11.12V0.841249H28.64C32.88 0.841249 36.0267 2.01458 38.08 4.36125C40.1333 6.70792 41.16 9.97458 41.16 14.1612ZM31.8 15.9212C31.8 17.7612 31.3733 19.4812 30.52 21.0812C29.64 22.6812 28.4133 23.9746 26.84 24.9612C25.2667 25.9479 23.4 26.4412 21.24 26.4412C19.08 26.4412 17.2133 25.9479 15.64 24.9612C14.0667 23.9746 12.8533 22.6812 12 21.0812C11.1467 19.4812 10.72 17.7612 10.72 15.9212C10.72 14.0279 11.0933 12.4812 11.84 11.2812C12.5867 10.0546 13.7467 9.14792 15.32 8.56125C16.8667 7.97458 18.84 7.68125 21.24 7.68125C23.64 7.68125 25.6267 7.97458 27.2 8.56125C28.7467 9.14792 29.9067 10.0546 30.68 11.2812C31.4267 12.4812 31.8 14.0279 31.8 15.9212ZM24.76 13.5212C24.76 12.8012 24.6133 12.1612 24.32 11.6012C24.0267 11.0412 23.6133 10.6012 23.08 10.2812C22.5467 9.96125 21.9333 9.80125 21.24 9.80125C20.52 9.80125 19.9067 9.96125 19.4 10.2812C18.8667 10.6012 18.4667 11.0412 18.2 11.6012C17.9067 12.1612 17.76 12.8012 17.76 13.5212C17.76 14.2146 17.9067 14.8546 18.2 15.4412C18.4667 16.0012 18.8667 16.4546 19.4 16.8012C19.9067 17.1212 20.52 17.2812 21.24 17.2812C21.9333 17.2812 22.5467 17.1212 23.08 16.8012C23.6133 16.4546 24.0267 16.0012 24.32 15.4412C24.6133 14.8546 24.76 14.2146 24.76 13.5212Z" fill="black"/>
</svg>
