<svg width="40" height="221" viewBox="0 0 40 221" fill="none" xmlns="http://www.w3.org/2000/svg">
<path d="M14.92 211.92L14.92 199.6H22.04L22.04 211.92H14.92ZM31 211.28V220.72H3L3 197.96H10.12L10.12 211.28H31ZM31.4 184.088C31.4 186.568 30.92 188.768 29.96 190.688C28.9733 192.582 27.6267 194.075 25.92 195.168C24.2133 196.262 22.2533 196.808 20.04 196.808C17.8267 196.808 15.8667 196.262 14.16 195.168C12.4533 194.075 11.12 192.582 10.16 190.688C9.2 188.768 8.72 186.568 8.72 184.088C8.72 181.608 9.2 179.408 10.16 177.488C11.12 175.568 12.4533 174.075 14.16 173.008C15.8667 171.915 17.8267 171.368 20.04 171.368C22.2533 171.368 24.2133 171.915 25.92 173.008C27.6267 174.075 28.9733 175.568 29.96 177.488C30.92 179.408 31.4 181.608 31.4 184.088ZM24.36 184.088C24.36 183.422 24.2 182.822 23.88 182.288C23.56 181.755 23.08 181.328 22.44 181.008C21.7733 180.688 20.9733 180.528 20.04 180.528C19.08 180.528 18.2933 180.688 17.68 181.008C17.04 181.328 16.56 181.755 16.24 182.288C15.92 182.822 15.76 183.422 15.76 184.088C15.76 184.755 15.92 185.355 16.24 185.888C16.56 186.422 17.04 186.848 17.68 187.168C18.2933 187.488 19.08 187.648 20.04 187.648C20.9733 187.648 21.7733 187.488 22.44 187.168C23.08 186.848 23.56 186.422 23.88 185.888C24.2 185.355 24.36 184.755 24.36 184.088ZM31.4 157.979C31.4 160.992 30.68 163.339 29.24 165.019C27.7733 166.699 25.5333 167.539 22.52 167.539H4.2L4.2 158.499H22.44C23.1067 158.499 23.6267 158.326 24 157.979C24.3733 157.606 24.56 157.152 24.56 156.619C24.56 155.846 24.36 155.166 23.96 154.579L30.24 152.419C30.64 153.112 30.9333 153.952 31.12 154.939C31.3067 155.899 31.4 156.912 31.4 157.979ZM16.92 170.539H10.32L10.32 154.019H16.92L16.92 170.539ZM31.4 139.167C31.4 141.647 30.92 143.847 29.96 145.767C28.9733 147.66 27.6267 149.153 25.92 150.247C24.2133 151.34 22.2533 151.887 20.04 151.887C17.8267 151.887 15.8667 151.34 14.16 150.247C12.4533 149.153 11.12 147.66 10.16 145.767C9.2 143.847 8.72 141.647 8.72 139.167C8.72 136.687 9.2 134.487 10.16 132.567C11.12 130.647 12.4533 129.153 14.16 128.087C15.8667 126.993 17.8267 126.447 20.04 126.447C22.2533 126.447 24.2133 126.993 25.92 128.087C27.6267 129.153 28.9733 130.647 29.96 132.567C30.92 134.487 31.4 136.687 31.4 139.167ZM24.36 139.167C24.36 138.5 24.2 137.9 23.88 137.367C23.56 136.833 23.08 136.407 22.44 136.087C21.7733 135.767 20.9733 135.607 20.04 135.607C19.08 135.607 18.2933 135.767 17.68 136.087C17.04 136.407 16.56 136.833 16.24 137.367C15.92 137.9 15.76 138.5 15.76 139.167C15.76 139.833 15.92 140.433 16.24 140.967C16.56 141.5 17.04 141.927 17.68 142.247C18.2933 142.567 19.08 142.727 20.04 142.727C20.9733 142.727 21.7733 142.567 22.44 142.247C23.08 141.927 23.56 141.5 23.88 140.967C24.2 140.433 24.36 139.833 24.36 139.167ZM39.16 112.497C39.16 114.657 38.9333 116.684 38.48 118.577C38.0267 120.471 37.3467 122.097 36.44 123.457L30.28 120.417C30.9467 119.564 31.4667 118.484 31.84 117.177C32.24 115.844 32.44 114.591 32.44 113.417C32.44 111.551 32.04 110.217 31.24 109.417C30.4667 108.617 29.3467 108.217 27.88 108.217H26.04L19.24 107.817L12.44 107.777H9.12L9.12 99.1772L26.64 99.1772C30.88 99.1772 34.0267 100.351 36.08 102.697C38.1333 105.044 39.16 108.311 39.16 112.497ZM29.8 114.257C29.8 116.097 29.3733 117.817 28.52 119.417C27.64 121.017 26.4133 122.311 24.84 123.297C23.2667 124.284 21.4 124.777 19.24 124.777C17.08 124.777 15.2133 124.284 13.64 123.297C12.0667 122.311 10.8533 121.017 10 119.417C9.14667 117.817 8.72 116.097 8.72 114.257C8.72 112.364 9.09333 110.817 9.84 109.617C10.5867 108.391 11.7467 107.484 13.32 106.897C14.8667 106.311 16.84 106.017 19.24 106.017C21.64 106.017 23.6267 106.311 25.2 106.897C26.7467 107.484 27.9067 108.391 28.68 109.617C29.4267 110.817 29.8 112.364 29.8 114.257ZM22.76 111.857C22.76 111.137 22.6133 110.497 22.32 109.937C22.0267 109.377 21.6133 108.937 21.08 108.617C20.5467 108.297 19.9333 108.137 19.24 108.137C18.52 108.137 17.9067 108.297 17.4 108.617C16.8667 108.937 16.4667 109.377 16.2 109.937C15.9067 110.497 15.76 111.137 15.76 111.857C15.76 112.551 15.9067 113.191 16.2 113.777C16.4667 114.337 16.8667 114.791 17.4 115.137C17.9067 115.457 18.52 115.617 19.24 115.617C19.9333 115.617 20.5467 115.457 21.08 115.137C21.6133 114.791 22.0267 114.337 22.32 113.777C22.6133 113.191 22.76 112.551 22.76 111.857ZM31 95.1797L9.12 95.1797L9.12 86.5797H15.72L13.84 87.9797C12.1333 87.313 10.8533 86.2464 10 84.7797C9.14667 83.313 8.72 81.553 8.72 79.4997H16.72C16.6667 79.8997 16.6267 80.2597 16.6 80.5797C16.5733 80.873 16.56 81.1797 16.56 81.4997C16.56 82.8597 16.92 83.9797 17.64 84.8597C18.3333 85.713 19.5467 86.1397 21.28 86.1397H31V95.1797ZM31 64.9084H27.12L26.08 65.5484H18.72C17.6533 65.5484 16.84 65.8818 16.28 66.5484C15.72 67.1884 15.44 68.2418 15.44 69.7084C15.44 70.6951 15.6 71.6951 15.92 72.7084C16.2133 73.7218 16.6267 74.5884 17.16 75.3084L11.2 78.1884C10.4 76.9084 9.78667 75.3751 9.36 73.5884C8.93333 71.8018 8.72 70.0551 8.72 68.3484C8.72 64.5884 9.56 61.6818 11.24 59.6284C12.92 57.5484 15.5867 56.5084 19.24 56.5084H31V64.9084ZM31.4 71.1084C31.4 72.8951 31.0933 74.3884 30.48 75.5884C29.8667 76.7884 29.0533 77.6951 28.04 78.3084C27 78.9218 25.8533 79.2284 24.6 79.2284C23.1867 79.2284 21.9867 78.8684 21 78.1484C20.0133 77.4284 19.2667 76.3351 18.76 74.8684C18.2533 73.3751 18 71.4951 18 69.2284L18 64.6684H22.36L22.36 67.7884C22.36 68.7484 22.52 69.4551 22.84 69.9084C23.1333 70.3351 23.5867 70.5484 24.2 70.5484C24.7067 70.5484 25.1333 70.3618 25.48 69.9884C25.8 69.5884 25.96 69.0551 25.96 68.3884C25.96 67.7751 25.8 67.2151 25.48 66.7084C25.1333 66.1751 24.6 65.7884 23.88 65.5484L26.56 64.3884C28.1867 64.7351 29.4 65.4684 30.2 66.5884C31 67.7084 31.4 69.2151 31.4 71.1084ZM31 51.6016H10.2C7.37333 51.6016 5.12 50.7616 3.44 49.0816C1.76 47.3749 0.919999 44.9616 0.919999 41.8416C0.919999 40.8816 1.01333 39.9216 1.2 38.9616C1.36 37.9749 1.62667 37.1482 2 36.4816L8.28 38.6416C8.14667 38.9349 8.02667 39.2549 7.92 39.6016C7.81333 39.9482 7.76 40.3082 7.76 40.6816C7.76 41.3216 7.96 41.8416 8.36 42.2416C8.76 42.6416 9.4 42.8416 10.28 42.8416H11.32L15.04 42.5616H31L31 51.6016ZM16.92 54.6016H10.32L10.32 38.0816H16.92L16.92 54.6016ZM31 35.1797H9.12V26.1397H31V35.1797ZM6.72 34.8597L0.319999 29.5797L0.319999 20.9797L6.72 28.8597L6.72 34.8597ZM31 8.89281H27.12L26.08 9.53281H18.72C17.6533 9.53281 16.84 9.86615 16.28 10.5328C15.72 11.1728 15.44 12.2261 15.44 13.6928C15.44 14.6795 15.6 15.6795 15.92 16.6928C16.2133 17.7061 16.6267 18.5728 17.16 19.2928L11.2 22.1728C10.4 20.8928 9.78667 19.3595 9.36 17.5728C8.93333 15.7861 8.72 14.0395 8.72 12.3328C8.72 8.57281 9.56 5.66615 11.24 3.61281C12.92 1.53281 15.5867 0.492812 19.24 0.492812H31V8.89281ZM31.4 15.0928C31.4 16.8795 31.0933 18.3728 30.48 19.5728C29.8667 20.7728 29.0533 21.6795 28.04 22.2928C27 22.9061 25.8533 23.2128 24.6 23.2128C23.1867 23.2128 21.9867 22.8528 21 22.1328C20.0133 21.4128 19.2667 20.3195 18.76 18.8528C18.2533 17.3595 18 15.4795 18 13.2128L18 8.65281H22.36L22.36 11.7728C22.36 12.7328 22.52 13.4395 22.84 13.8928C23.1333 14.3195 23.5867 14.5328 24.2 14.5328C24.7067 14.5328 25.1333 14.3461 25.48 13.9728C25.8 13.5728 25.96 13.0395 25.96 12.3728C25.96 11.7595 25.8 11.1995 25.48 10.6928C25.1333 10.1595 24.6 9.77281 23.88 9.53281L26.56 8.37281C28.1867 8.71948 29.4 9.45281 30.2 10.5728C31 11.6928 31.4 13.1995 31.4 15.0928Z" fill="black"/>
</svg>
