<svg width="31" height="308" viewBox="0 0 31 308" fill="none" xmlns="http://www.w3.org/2000/svg">
<path d="M13.92 298.92V286.6H21.04V298.92H13.92ZM30 298.28V307.72H2L2 284.96H9.12V298.28H30ZM30.4 271.088C30.4 273.568 29.92 275.768 28.96 277.688C27.9733 279.582 26.6267 281.075 24.92 282.168C23.2133 283.262 21.2533 283.808 19.04 283.808C16.8267 283.808 14.8667 283.262 13.16 282.168C11.4533 281.075 10.12 279.582 9.16 277.688C8.2 275.768 7.72 273.568 7.72 271.088C7.72 268.608 8.2 266.408 9.16 264.488C10.12 262.568 11.4533 261.075 13.16 260.008C14.8667 258.915 16.8267 258.368 19.04 258.368C21.2533 258.368 23.2133 258.915 24.92 260.008C26.6267 261.075 27.9733 262.568 28.96 264.488C29.92 266.408 30.4 268.608 30.4 271.088ZM23.36 271.088C23.36 270.422 23.2 269.822 22.88 269.288C22.56 268.755 22.08 268.328 21.44 268.008C20.7733 267.688 19.9733 267.528 19.04 267.528C18.08 267.528 17.2933 267.688 16.68 268.008C16.04 268.328 15.56 268.755 15.24 269.288C14.92 269.822 14.76 270.422 14.76 271.088C14.76 271.755 14.92 272.355 15.24 272.888C15.56 273.422 16.04 273.848 16.68 274.168C17.2933 274.488 18.08 274.648 19.04 274.648C19.9733 274.648 20.7733 274.488 21.44 274.168C22.08 273.848 22.56 273.422 22.88 272.888C23.2 272.355 23.36 271.755 23.36 271.088ZM30.4 244.979C30.4 247.992 29.68 250.339 28.24 252.019C26.7733 253.699 24.5333 254.539 21.52 254.539H3.2V245.499H21.44C22.1067 245.499 22.6267 245.326 23 244.979C23.3733 244.606 23.56 244.152 23.56 243.619C23.56 242.846 23.36 242.166 22.96 241.579L29.24 239.419C29.64 240.112 29.9333 240.952 30.12 241.939C30.3067 242.899 30.4 243.912 30.4 244.979ZM15.92 257.539H9.32V241.019H15.92V257.539ZM30.4 226.167C30.4 228.647 29.92 230.847 28.96 232.767C27.9733 234.66 26.6267 236.153 24.92 237.247C23.2133 238.34 21.2533 238.887 19.04 238.887C16.8267 238.887 14.8667 238.34 13.16 237.247C11.4533 236.153 10.12 234.66 9.16 232.767C8.2 230.847 7.72 228.647 7.72 226.167C7.72 223.687 8.2 221.487 9.16 219.567C10.12 217.647 11.4533 216.153 13.16 215.087C14.8667 213.993 16.8267 213.447 19.04 213.447C21.2533 213.447 23.2133 213.993 24.92 215.087C26.6267 216.153 27.9733 217.647 28.96 219.567C29.92 221.487 30.4 223.687 30.4 226.167ZM23.36 226.167C23.36 225.5 23.2 224.9 22.88 224.367C22.56 223.833 22.08 223.407 21.44 223.087C20.7733 222.767 19.9733 222.607 19.04 222.607C18.08 222.607 17.2933 222.767 16.68 223.087C16.04 223.407 15.56 223.833 15.24 224.367C14.92 224.9 14.76 225.5 14.76 226.167C14.76 226.833 14.92 227.433 15.24 227.967C15.56 228.5 16.04 228.927 16.68 229.247C17.2933 229.567 18.08 229.727 19.04 229.727C19.9733 229.727 20.7733 229.567 21.44 229.247C22.08 228.927 22.56 228.5 22.88 227.967C23.2 227.433 23.36 226.833 23.36 226.167ZM30 198.345H2V184.865C2 182.252 2.42666 179.998 3.28 178.105C4.13333 176.185 5.36 174.705 6.96 173.665C8.53333 172.625 10.4 172.105 12.56 172.105C14.72 172.105 16.5867 172.625 18.16 173.665C19.7333 174.705 20.96 176.185 21.84 178.105C22.6933 179.998 23.12 182.252 23.12 184.865V193.105L19.08 188.905H30V198.345ZM20.12 188.905L15.84 193.105V185.465C15.84 184.158 15.5467 183.198 14.96 182.585C14.3733 181.945 13.5733 181.625 12.56 181.625C11.5467 181.625 10.7467 181.945 10.16 182.585C9.57333 183.198 9.28 184.158 9.28 185.465V193.105L5 188.905H20.12ZM30 168.898H8.12L8.12 160.298H14.72L12.84 161.698C11.1333 161.032 9.85333 159.965 9 158.498C8.14667 157.032 7.72 155.272 7.72 153.218H15.72C15.6667 153.618 15.6267 153.978 15.6 154.298C15.5733 154.592 15.56 154.898 15.56 155.218C15.56 156.578 15.92 157.698 16.64 158.578C17.3333 159.432 18.5467 159.858 20.28 159.858H30V168.898ZM30.4 139.292C30.4 141.772 29.92 143.972 28.96 145.892C27.9733 147.785 26.6267 149.278 24.92 150.372C23.2133 151.465 21.2533 152.012 19.04 152.012C16.8267 152.012 14.8667 151.465 13.16 150.372C11.4533 149.278 10.12 147.785 9.16 145.892C8.2 143.972 7.72 141.772 7.72 139.292C7.72 136.812 8.2 134.612 9.16 132.692C10.12 130.772 11.4533 129.278 13.16 128.212C14.8667 127.118 16.8267 126.572 19.04 126.572C21.2533 126.572 23.2133 127.118 24.92 128.212C26.6267 129.278 27.9733 130.772 28.96 132.692C29.92 134.612 30.4 136.812 30.4 139.292ZM23.36 139.292C23.36 138.625 23.2 138.025 22.88 137.492C22.56 136.958 22.08 136.532 21.44 136.212C20.7733 135.892 19.9733 135.732 19.04 135.732C18.08 135.732 17.2933 135.892 16.68 136.212C16.04 136.532 15.56 136.958 15.24 137.492C14.92 138.025 14.76 138.625 14.76 139.292C14.76 139.958 14.92 140.558 15.24 141.092C15.56 141.625 16.04 142.052 16.68 142.372C17.2933 142.692 18.08 142.852 19.04 142.852C19.9733 142.852 20.7733 142.692 21.44 142.372C22.08 142.052 22.56 141.625 22.88 141.092C23.2 140.558 23.36 139.958 23.36 139.292ZM30.4 114.142C30.4 116.036 29.9467 117.796 29.04 119.422C28.1067 121.022 26.8 122.302 25.12 123.262C23.4133 124.222 21.3867 124.702 19.04 124.702C16.6933 124.702 14.68 124.222 13 123.262C11.2933 122.302 9.98667 121.022 9.08 119.422C8.17333 117.796 7.72 116.036 7.72 114.142C7.72 112.222 8.13333 110.649 8.96 109.422C9.76 108.196 11 107.289 12.68 106.702C14.3333 106.116 16.4533 105.822 19.04 105.822C21.6533 105.822 23.8 106.102 25.48 106.662C27.16 107.196 28.4 108.076 29.2 109.302C30 110.502 30.4 112.116 30.4 114.142ZM23.36 111.982C23.36 111.316 23.2 110.716 22.88 110.182C22.56 109.649 22.08 109.222 21.44 108.902C20.7733 108.582 19.9733 108.422 19.04 108.422C18.08 108.422 17.2933 108.582 16.68 108.902C16.04 109.222 15.56 109.649 15.24 110.182C14.92 110.716 14.76 111.316 14.76 111.982C14.76 112.649 14.92 113.249 15.24 113.782C15.56 114.316 16.04 114.742 16.68 115.062C17.2933 115.382 18.08 115.542 19.04 115.542C19.9733 115.542 20.7733 115.382 21.44 115.062C22.08 114.742 22.56 114.316 22.88 113.782C23.2 113.249 23.36 112.649 23.36 111.982ZM30 108.142H27.04L19.04 108.182L11.04 108.582H0.319998V99.5422H30V108.142ZM30.4 86.4191C30.4 88.1524 30.0533 89.7257 29.36 91.1391C28.64 92.5257 27.5333 93.6191 26.04 94.4191C24.52 95.2191 22.5733 95.6191 20.2 95.6191H8.12V86.5791H18.64C20.1867 86.5791 21.2667 86.3257 21.88 85.8191C22.4933 85.3124 22.8 84.6191 22.8 83.7391C22.8 83.2057 22.6667 82.7124 22.4 82.2591C22.1067 81.7791 21.64 81.3924 21 81.0991C20.3333 80.8057 19.4667 80.6591 18.4 80.6591H8.12V71.6191H30V80.2191H23.68L25.4 78.4991C27.1067 79.2724 28.3733 80.3791 29.2 81.8191C30 83.2324 30.4 84.7657 30.4 86.4191ZM30.4 55.8494C30.4 58.356 29.92 60.5827 28.96 62.5294C28 64.476 26.6667 66.0094 24.96 67.1294C23.2267 68.2227 21.2533 68.7694 19.04 68.7694C16.8267 68.7694 14.8667 68.2227 13.16 67.1294C11.4533 66.0094 10.12 64.476 9.16 62.5294C8.2 60.5827 7.72 58.356 7.72 55.8494C7.72 53.1827 8.29333 50.9027 9.44 49.0094C10.5867 47.116 12.1733 45.8094 14.2 45.0894L17.64 52.0894C16.6267 52.5427 15.8933 53.1027 15.44 53.7694C14.9867 54.4094 14.76 55.116 14.76 55.8894C14.76 56.556 14.92 57.1827 15.24 57.7694C15.56 58.3294 16.04 58.7827 16.68 59.1294C17.2933 59.4494 18.08 59.6094 19.04 59.6094C20 59.6094 20.8 59.4494 21.44 59.1294C22.08 58.7827 22.56 58.3294 22.88 57.7694C23.2 57.1827 23.36 56.556 23.36 55.8894C23.36 55.116 23.1333 54.4094 22.68 53.7694C22.2267 53.1027 21.4933 52.5427 20.48 52.0894L23.92 45.0894C25.9467 45.8094 27.5333 47.116 28.68 49.0094C29.8267 50.9027 30.4 53.1827 30.4 55.8494ZM30.4 32.0494C30.4 35.0627 29.68 37.4094 28.24 39.0894C26.7733 40.7694 24.5333 41.6094 21.52 41.6094H3.2L3.2 32.5694H21.44C22.1067 32.5694 22.6267 32.396 23 32.0494C23.3733 31.676 23.56 31.2227 23.56 30.6894C23.56 29.916 23.36 29.236 22.96 28.6494L29.24 26.4894C29.64 27.1827 29.9333 28.0227 30.12 29.0094C30.3067 29.9694 30.4 30.9827 30.4 32.0494ZM15.92 44.6094H9.32V28.0894H15.92V44.6094ZM30.4 13.2369C30.4 15.7169 29.92 17.9169 28.96 19.8369C27.9733 21.7302 26.6267 23.2235 24.92 24.3169C23.2133 25.4102 21.2533 25.9569 19.04 25.9569C16.8267 25.9569 14.8667 25.4102 13.16 24.3169C11.4533 23.2235 10.12 21.7302 9.16 19.8369C8.2 17.9169 7.72 15.7169 7.72 13.2369C7.72 10.7569 8.2 8.55687 9.16 6.63687C10.12 4.71687 11.4533 3.22354 13.16 2.15687C14.8667 1.06354 16.8267 0.516875 19.04 0.516875C21.2533 0.516875 23.2133 1.06354 24.92 2.15687C26.6267 3.22354 27.9733 4.71687 28.96 6.63687C29.92 8.55687 30.4 10.7569 30.4 13.2369ZM23.36 13.2369C23.36 12.5702 23.2 11.9702 22.88 11.4369C22.56 10.9035 22.08 10.4769 21.44 10.1569C20.7733 9.83687 19.9733 9.67687 19.04 9.67687C18.08 9.67687 17.2933 9.83687 16.68 10.1569C16.04 10.4769 15.56 10.9035 15.24 11.4369C14.92 11.9702 14.76 12.5702 14.76 13.2369C14.76 13.9035 14.92 14.5035 15.24 15.0369C15.56 15.5702 16.04 15.9969 16.68 16.3169C17.2933 16.6369 18.08 16.7969 19.04 16.7969C19.9733 16.7969 20.7733 16.6369 21.44 16.3169C22.08 15.9969 22.56 15.5702 22.88 15.0369C23.2 14.5035 23.36 13.9035 23.36 13.2369Z" fill="black"/>
</svg>
