<?xml version='1.0' encoding='utf-8'?>
<svg xmlns="http://www.w3.org/2000/svg" width="1129" height="733" viewBox="0 0 1129 733" fill="none"><defs><mask id="revealMask" maskUnits="objectBoundingBox" maskContentUnits="objectBoundingBox"><rect x="0" y="0" width="1" height="1" fill="black" /><rect x="0" y="0" width="0" height="1" fill="white"><animate attributeName="width" from="0" to="1" dur="2s" repeatCount="indefinite" /></rect></mask></defs><g mask="url(#revealMask)"><path d="M0.767188 251.2H101.567C107.701 251.733 113.301 251.467 118.367 250.4C123.434 249.067 127.834 247.2 131.567 244.8C135.301 242.4 138.367 239.2 140.767 235.2C143.167 231.2 144.767 226.4 145.567 220.8C145.567 216 144.767 211.467 143.167 207.2C141.567 202.933 139.167 198.8 135.967 194.8C132.767 190.8 128.767 187.067 123.967 183.6C119.167 180.133 113.701 176.8 107.567 173.6C106.501 173.067 105.434 172.533 104.367 172C103.301 171.467 102.234 170.933 101.167 170.4C100.101 169.867 99.0339 169.333 97.9672 168.8C96.9005 168.267 95.8339 167.733 94.7672 167.2C94.5005 167.2 94.2339 167.2 93.9672 167.2C93.7005 167.2 93.4339 167.2 93.1672 167.2C93.1672 166.933 93.1672 166.667 93.1672 166.4C81.9672 161.067 71.1672 155.467 60.7672 149.6C50.6339 143.733 40.9005 137.6 31.5672 131.2C22.5005 124.8 15.5672 117.333 10.7672 108.8C6.23385 100.267 3.96719 90.6667 3.96719 80C3.96719 79.7333 3.96719 79.6 3.96719 79.6C3.96719 79.3333 3.96719 79.0667 3.96719 78.8C3.96719 78.8 3.96719 78.6667 3.96719 78.4C3.96719 78.1333 3.96719 77.8667 3.96719 77.6C3.96719 77.3333 3.96719 77.0667 3.96719 76.8C3.96719 76.5333 3.96719 76.4 3.96719 76.4C3.96719 76.1333 3.96719 75.8667 3.96719 75.6C3.96719 65.4667 5.30052 56.5333 7.96719 48.8C10.9005 41.0666 15.3005 34.6667 21.1672 29.6C27.0339 24.2667 33.1672 19.8667 39.5672 16.4C45.9672 12.9333 52.7672 10.4 59.9672 8.79999C61.0339 8.53333 62.1005 8.4 63.1672 8.4C64.2339 8.13332 65.3005 7.86665 66.3672 7.59998C66.9005 7.59998 67.4339 7.59998 67.9672 7.59998C68.5005 7.33332 69.1672 7.06666 69.9672 6.79999C70.5005 6.79999 71.0339 6.79999 71.5672 6.79999C72.1005 6.53332 72.6339 6.39998 73.1672 6.39998L170.767 5.59999V40.4H79.5672C73.9672 40.9333 68.9005 42 64.3672 43.6C60.1005 45.2 56.3672 47.6 53.1672 50.8C49.9672 54 47.5672 57.3333 45.9672 60.8C44.3672 64.2667 43.3005 67.8667 42.7672 71.6C42.7672 71.8667 42.6339 72.1333 42.3672 72.4C42.3672 72.6666 42.3672 72.9333 42.3672 73.2C42.3672 73.2 42.3672 73.3333 42.3672 73.6C42.3672 73.8667 42.3672 74.1333 42.3672 74.4C42.3672 74.6667 42.3672 74.9333 42.3672 75.2C42.3672 75.2 42.3672 75.3333 42.3672 75.6C42.3672 78 42.5005 80.2667 42.7672 82.4C43.3005 84.5333 44.1005 86.6667 45.1672 88.8C46.2339 90.6667 47.5672 92.4 49.1672 94C50.7672 95.6 52.5005 96.9333 54.3672 98C60.5005 102.267 66.3672 106.133 71.9672 109.6C77.8339 113.067 83.3005 116.133 88.3672 118.8C93.7005 121.467 98.7672 124.133 103.567 126.8C108.367 129.2 113.167 131.6 117.967 134C119.301 134.8 120.501 135.6 121.567 136.4C122.901 136.933 124.101 137.467 125.167 138C125.701 138.267 126.234 138.667 126.767 139.2C127.567 139.467 128.367 139.733 129.167 140C129.701 140.533 130.234 140.933 130.767 141.2C131.567 141.467 132.234 141.733 132.767 142C133.567 142.533 134.367 143.2 135.167 144C136.234 144.533 137.301 145.067 138.367 145.6C139.167 146.133 140.101 146.8 141.167 147.6C142.234 148.133 143.301 148.667 144.367 149.2C149.167 152.4 153.701 156.133 157.967 160.4C162.501 164.667 166.767 169.467 170.767 174.8C174.767 180.133 177.834 186.133 179.967 192.8C182.101 199.467 183.167 206.667 183.167 214.4C183.167 216.267 183.034 218.267 182.767 220.4C182.767 222.533 182.634 224.667 182.367 226.8C182.101 228.933 181.834 231.2 181.567 233.6C181.301 235.733 180.901 237.867 180.367 240C178.767 245.867 176.367 251.467 173.167 256.8C169.967 262.133 165.834 267.2 160.767 272C155.701 276.8 149.034 280.4 140.767 282.8C132.767 284.933 123.034 286 111.567 286C111.301 286 111.034 286 110.767 286C110.501 286 110.234 286 109.967 286C109.701 286 109.434 286 109.167 286C108.901 286 108.634 286 108.367 286C108.101 286 107.701 286 107.167 286C106.901 286 106.634 286 106.367 286C106.101 286 105.834 286 105.567 286C105.301 286 105.034 286 104.767 286H0.767188V251.2ZM172.73 40.4V5.59999H352.33V40.4H283.13V286H241.93V40.4H172.73ZM348.092 5.59999H389.292V185.2C389.292 198.267 390.626 209.333 393.292 218.4C395.959 227.2 399.959 234.267 405.292 239.6C410.626 244.667 416.359 248.533 422.492 251.2C428.892 253.867 435.692 255.2 442.892 255.2C451.426 255.2 458.892 253.867 465.292 251.2C471.692 248.533 477.026 244.4 481.292 238.8C485.559 233.467 488.892 227.867 491.292 222C493.692 215.867 495.159 209.467 495.692 202.8C495.692 202.533 495.692 202.267 495.692 202C495.692 201.733 495.826 201.333 496.092 200.8C496.092 200.533 496.092 200.267 496.092 200C496.092 199.733 496.092 199.467 496.092 199.2C496.092 198.667 496.092 198.133 496.092 197.6C496.092 196.8 496.092 196.133 496.092 195.6V5.59999H537.292V191.6C537.292 208.667 534.892 223.333 530.092 235.6C525.292 247.867 518.226 258 508.892 266C499.559 274 489.292 279.867 478.092 283.6C467.159 287.333 455.426 289.2 442.892 289.2C430.359 289.2 418.492 287.2 407.292 283.2C396.359 278.933 386.092 272.533 376.492 264C366.892 255.467 359.692 245.467 354.892 234C350.359 222.533 348.092 209.733 348.092 195.6V5.59999ZM561.13 286V5.59999H649.13C651.796 6.13331 654.463 6.53332 657.13 6.79999C660.063 7.06666 662.863 7.46665 665.53 7.99998C668.463 8.53332 671.396 9.19999 674.33 9.99998C677.263 10.8 680.196 11.6 683.13 12.4C694.33 16.4 704.996 22.1333 715.13 29.6C725.53 36.8 735.263 45.8667 744.33 56.8C753.663 67.4667 760.596 79.8667 765.13 94C769.93 107.867 772.33 123.2 772.33 140C772.33 140.267 772.33 140.533 772.33 140.8C772.33 140.8 772.33 140.933 772.33 141.2C772.33 141.467 772.33 141.733 772.33 142C772.33 142.267 772.33 142.4 772.33 142.4C772.33 142.667 772.33 142.933 772.33 143.2C772.33 143.467 772.33 143.733 772.33 144C772.33 144.267 772.33 144.533 772.33 144.8C772.33 144.8 772.33 144.933 772.33 145.2C772.33 148.667 772.063 152.8 771.53 157.6C770.996 162.133 770.063 167.467 768.73 173.6C767.663 179.467 765.93 185.467 763.53 191.6C761.396 197.733 758.73 204 755.53 210.4C750.996 219.733 745.13 228.8 737.93 237.6C730.996 246.133 722.863 254.267 713.53 262C704.196 269.733 693.13 275.6 680.33 279.6C667.53 283.6 652.996 285.733 636.73 286H614.73V248.4H636.73C636.73 248.933 636.73 249.2 636.73 249.2C636.996 249.2 637.263 249.2 637.53 249.2C637.796 249.2 637.93 249.2 637.93 249.2C638.196 249.2 638.463 249.2 638.73 249.2C638.996 249.2 639.263 249.2 639.53 249.2C639.796 249.2 639.93 249.2 639.93 249.2C640.196 249.2 640.463 249.2 640.73 249.2C651.93 249.2 662.063 247.6 671.13 244.4C680.196 240.933 688.063 235.867 694.73 229.2C701.396 222.533 707.13 215.6 711.93 208.4C716.73 201.2 720.596 193.6 723.53 185.6C724.063 183.733 724.596 182 725.13 180.4C725.663 178.533 726.196 176.667 726.73 174.8C727.263 173.2 727.663 171.6 727.93 170C728.463 168.133 728.863 166.267 729.13 164.4C729.663 160.667 730.063 157.2 730.33 154C730.863 150.8 731.13 147.867 731.13 145.2C731.13 144.933 731.13 144.667 731.13 144.4C731.13 144.133 731.13 143.867 731.13 143.6C731.13 143.333 731.13 143.067 731.13 142.8C731.13 142.267 731.263 141.867 731.53 141.6C731.53 141.333 731.53 141.067 731.53 140.8C731.53 140.533 731.53 140.267 731.53 140C731.53 139.733 731.53 139.467 731.53 139.2C731.53 138.933 731.53 138.667 731.53 138.4C731.53 138.4 731.53 138.267 731.53 138C731.53 137.733 731.53 137.467 731.53 137.2C731.263 125.2 728.996 113.733 724.73 102.8C720.73 91.6 714.596 81.0667 706.33 71.2C698.063 61.0667 687.663 53.6 675.13 48.8C662.596 43.7333 647.663 41.2 630.33 41.2L601.93 40.4V286H561.13ZM783.633 286V5.59999H821.633V286H783.633ZM839.123 141.2C839.123 120.4 842.59 101.6 849.523 84.8C856.457 68 866.857 53.4666 880.723 41.2C894.59 28.6666 909.123 19.0667 924.323 12.4C939.523 5.46665 955.39 1.46665 971.923 0.399981C972.457 0.399981 972.857 0.399981 973.123 0.399981C973.39 0.399981 973.79 0.26665 974.323 -1.33514e-05C974.59 -1.33514e-05 974.857 -1.33514e-05 975.123 -1.33514e-05C975.657 -1.33514e-05 976.057 -1.33514e-05 976.323 -1.33514e-05C976.857 -1.33514e-05 977.257 -1.33514e-05 977.523 -1.33514e-05C977.79 -1.33514e-05 978.19 -1.33514e-05 978.723 -1.33514e-05C978.99 -1.33514e-05 979.257 -1.33514e-05 979.523 -1.33514e-05C980.057 -1.33514e-05 980.457 -1.33514e-05 980.723 -1.33514e-05C984.19 -1.33514e-05 987.657 0.133318 991.123 0.399981C994.857 0.666645 998.59 1.06665 1002.32 1.59999C1006.06 2.13332 1009.79 2.79998 1013.52 3.59999C1017.52 4.39999 1021.52 5.33332 1025.52 6.39998C1038.06 10.1333 1050.06 15.7333 1061.52 23.2C1072.99 30.6667 1084.06 39.8667 1094.72 50.8C1105.39 61.7333 1113.52 75.0666 1119.12 90.8C1124.72 106.533 1127.92 124.667 1128.72 145.2C1128.72 164.133 1125.52 182 1119.12 198.8C1112.72 215.6 1103.26 231.333 1090.72 246C1078.19 260.667 1063.26 271.6 1045.92 278.8C1028.86 285.733 1009.26 289.2 987.123 289.2C966.59 289.2 947.523 286.133 929.923 280C912.59 273.867 896.723 264.667 882.323 252.4C867.923 239.867 857.123 224.4 849.923 206C842.723 187.6 839.123 166.267 839.123 142V141.2ZM879.923 141.2C879.923 142.267 879.923 143.067 879.923 143.6C879.923 144.133 879.923 144.667 879.923 145.2C879.923 145.467 879.923 145.733 879.923 146C879.923 146.267 879.923 146.4 879.923 146.4C879.923 146.667 879.923 146.933 879.923 147.2C879.923 147.467 879.923 147.733 879.923 148C879.657 162.4 881.923 175.867 886.723 188.4C891.523 200.667 898.857 212.267 908.723 223.2C918.323 233.867 929.39 241.867 941.923 247.2C954.457 252.533 968.457 255.2 983.923 255.2C986.857 255.2 989.923 255.067 993.123 254.8C996.59 254.533 1000.06 254.133 1003.52 253.6C1007.26 253.067 1010.99 252.4 1014.72 251.6C1018.72 250.533 1022.72 249.2 1026.72 247.6C1034.46 244.667 1041.79 240.667 1048.72 235.6C1055.66 230.533 1062.32 224.267 1068.72 216.8C1075.12 209.067 1079.92 199.6 1083.12 188.4C1086.32 176.933 1087.92 163.6 1087.92 148.4C1087.92 134.267 1085.79 120.667 1081.52 107.6C1077.52 94.5333 1071.26 82.1333 1062.72 70.4C1054.46 58.6667 1043.39 49.8667 1029.52 44C1015.92 37.8667 999.657 34.8 980.723 34.8C964.99 34.8 950.857 37.6 938.323 43.2C926.057 48.8 915.523 57.2 906.723 68.4C897.657 79.6 890.857 91.3333 886.323 103.6C882.057 115.867 879.923 128.667 879.923 142V141.2ZM145.827 727V484.6C145.827 478.733 146.76 473.4 148.627 468.6C150.493 463.8 153.16 459.667 156.627 456.2C160.36 453 164.227 450.6 168.227 449C172.493 447.133 176.893 446.067 181.427 445.8C184.893 445.8 188.227 446.333 191.427 447.4C194.627 448.2 197.827 449.667 201.027 451.8C203.96 453.667 206.627 456.067 209.027 459C211.427 461.933 213.56 465.4 215.427 469.4L313.027 673.4V446.6H350.627V708.2C350.627 712.733 349.96 716.6 348.627 719.8C347.293 723 345.293 725.4 342.627 727C339.96 728.867 337.027 730.2 333.827 731C330.893 732.067 327.693 732.6 324.227 732.6C323.96 732.6 323.56 732.6 323.027 732.6C322.76 732.6 322.36 732.6 321.827 732.6C321.56 732.6 321.293 732.6 321.027 732.6C320.76 732.333 320.493 732.2 320.227 732.2C320.227 732.2 320.093 732.2 319.827 732.2C316.627 731.933 313.56 731.267 310.627 730.2C307.96 729.4 305.16 728.333 302.227 727C299.56 725.933 297.293 724.467 295.427 722.6C293.56 720.467 292.093 718.067 291.027 715.4L187.027 500.2V727H145.827ZM365.53 582.2C365.53 561.4 368.996 542.6 375.93 525.8C382.863 509 393.263 494.467 407.13 482.2C420.996 469.667 435.53 460.067 450.73 453.4C465.93 446.467 481.796 442.467 498.33 441.4C498.863 441.4 499.263 441.4 499.53 441.4C499.796 441.4 500.196 441.267 500.73 441C500.996 441 501.263 441 501.53 441C502.063 441 502.463 441 502.73 441C503.263 441 503.663 441 503.93 441C504.196 441 504.596 441 505.13 441C505.396 441 505.663 441 505.93 441C506.463 441 506.863 441 507.13 441C510.596 441 514.063 441.133 517.53 441.4C521.263 441.667 524.996 442.067 528.73 442.6C532.463 443.133 536.196 443.8 539.93 444.6C543.93 445.4 547.93 446.333 551.93 447.4C564.463 451.133 576.463 456.733 587.93 464.2C599.396 471.667 610.463 480.867 621.13 491.8C631.796 502.733 639.93 516.067 645.53 531.8C651.13 547.533 654.33 565.667 655.13 586.2C655.13 605.133 651.93 623 645.53 639.8C639.13 656.6 629.663 672.333 617.13 687C604.596 701.667 589.663 712.6 572.33 719.8C555.263 726.733 535.663 730.2 513.53 730.2C492.996 730.2 473.93 727.133 456.33 721C438.996 714.867 423.13 705.667 408.73 693.4C394.33 680.867 383.53 665.4 376.33 647C369.13 628.6 365.53 607.267 365.53 583V582.2ZM406.33 582.2C406.33 583.267 406.33 584.067 406.33 584.6C406.33 585.133 406.33 585.667 406.33 586.2C406.33 586.467 406.33 586.733 406.33 587C406.33 587.267 406.33 587.4 406.33 587.4C406.33 587.667 406.33 587.933 406.33 588.2C406.33 588.467 406.33 588.733 406.33 589C406.063 603.4 408.33 616.867 413.13 629.4C417.93 641.667 425.263 653.267 435.13 664.2C444.73 674.867 455.796 682.867 468.33 688.2C480.863 693.533 494.863 696.2 510.33 696.2C513.263 696.2 516.33 696.067 519.53 695.8C522.996 695.533 526.463 695.133 529.93 694.6C533.663 694.067 537.396 693.4 541.13 692.6C545.13 691.533 549.13 690.2 553.13 688.6C560.863 685.667 568.196 681.667 575.13 676.6C582.063 671.533 588.73 665.267 595.13 657.8C601.53 650.067 606.33 640.6 609.53 629.4C612.73 617.933 614.33 604.6 614.33 589.4C614.33 575.267 612.196 561.667 607.93 548.6C603.93 535.533 597.663 523.133 589.13 511.4C580.863 499.667 569.796 490.867 555.93 485C542.33 478.867 526.063 475.8 507.13 475.8C491.396 475.8 477.263 478.6 464.73 484.2C452.463 489.8 441.93 498.2 433.13 509.4C424.063 520.6 417.263 532.333 412.73 544.6C408.463 556.867 406.33 569.667 406.33 583V582.2ZM673.239 446.6H710.839V629.4C710.839 638.733 711.772 647.133 713.639 654.6C715.506 662.067 718.172 668.867 721.639 675C725.372 680.867 730.706 685.4 737.639 688.6C744.572 691.8 753.239 693.4 763.639 693.4C763.906 693.4 764.172 693.4 764.439 693.4C764.706 693.4 764.972 693.4 765.239 693.4C765.506 693.4 765.639 693.4 765.639 693.4C765.906 693.4 766.172 693.4 766.439 693.4C766.706 693.133 766.972 693 767.239 693C767.506 693 767.772 693 768.039 693C768.306 693 768.572 693 768.839 693C769.106 693 769.239 693 769.239 693C769.506 693 769.772 693 770.039 693C770.306 693 770.572 693 770.839 693L802.439 692.2V727H758.439C756.039 727 753.372 727 750.439 727C747.772 726.733 744.972 726.467 742.039 726.2C739.106 725.667 736.039 725 732.839 724.2C729.906 723.4 726.839 722.467 723.639 721.4C717.239 719 711.106 715.8 705.239 711.8C699.639 707.533 694.172 702.467 688.839 696.6C683.772 690.733 679.906 683.667 677.239 675.4C674.572 666.867 673.239 657 673.239 645.8V446.6ZM797.936 727V541C797.936 527.133 799.936 514.333 803.936 502.6C808.203 490.867 814.469 480.067 822.736 470.2C831.269 460.6 841.269 453.4 852.736 448.6C864.469 443.533 877.803 441 892.736 441C906.869 441 919.803 443.4 931.536 448.2C943.269 453 953.669 460.2 962.736 469.8C972.069 479.4 979.003 490.6 983.536 503.4C988.069 516.2 990.336 530.733 990.336 547C990.336 547.267 990.336 547.533 990.336 547.8C990.336 548.067 990.336 548.333 990.336 548.6C990.336 548.6 990.336 548.733 990.336 549C990.336 549.267 990.336 549.533 990.336 549.8C990.336 550.067 990.336 550.333 990.336 550.6C990.336 550.867 990.336 551.267 990.336 551.8C990.336 552.067 990.336 552.467 990.336 553C990.336 553.267 990.336 553.533 990.336 553.8C990.336 554.067 990.336 554.333 990.336 554.6V727H952.336V597.8H848.336V560.2H952.336C952.336 560.2 952.336 560.067 952.336 559.8C952.336 559.267 952.336 558.867 952.336 558.6C952.336 558.333 952.336 558.067 952.336 557.8C952.336 557.533 952.469 557.267 952.736 557C952.736 557 952.736 556.867 952.736 556.6C952.736 556.333 952.736 556.067 952.736 555.8C952.736 555.267 952.736 554.867 952.736 554.6C952.736 554.067 952.736 553.667 952.736 553.4C952.736 553.133 952.736 552.867 952.736 552.6C952.736 552.333 952.736 552.067 952.736 551.8C952.736 551.8 952.736 551.667 952.736 551.4C952.736 551.133 952.736 550.867 952.736 550.6C952.736 538.067 951.403 527.133 948.736 517.8C946.336 508.467 942.603 500.733 937.536 494.6C932.469 488.467 926.336 483.8 919.136 480.6C912.203 477.4 904.336 475.8 895.536 475.8C887.269 475.8 879.936 476.867 873.536 479C867.136 481.133 861.803 484.2 857.536 488.2C853.269 492.2 849.669 496.467 846.736 501C844.069 505.533 841.936 510.2 840.336 515C839.536 517.4 838.869 519.8 838.336 522.2C837.803 524.6 837.269 527 836.736 529.4C836.469 531.8 836.203 534.067 835.936 536.2C835.936 538.067 835.936 539.933 835.936 541.8V727H797.936Z" fill="black" />
</g></svg>