<svg width="42" height="262" viewBox="0 0 42 262" fill="none" xmlns="http://www.w3.org/2000/svg">
<path d="M33 252.64L5 261.6L5 251.88L28.64 244.64L28.64 249.52L5 241.84L5 233.16L28.64 226V230.68L5 223.12L5 214.16L33 223.12V233.24L13.64 239.08V236.36L33 242.52L33 252.64ZM33.4 201.865C33.4 204.532 32.9067 206.865 31.92 208.865C30.9333 210.839 29.5867 212.372 27.88 213.465C26.1467 214.559 24.2 215.105 22.04 215.105C19.8267 215.105 17.8667 214.572 16.16 213.505C14.4533 212.412 13.12 210.932 12.16 209.065C11.2 207.172 10.72 205.052 10.72 202.705C10.72 200.545 11.1467 198.559 12 196.745C12.8533 194.905 14.12 193.439 15.8 192.345C17.48 191.225 19.56 190.665 22.04 190.665C22.36 190.665 22.72 190.679 23.12 190.705C23.4933 190.732 23.84 190.759 24.16 190.785L24.16 207.625H19.8L19.8 195.585L20.96 198.985C20.1067 198.985 19.3867 199.145 18.8 199.465C18.1867 199.759 17.72 200.172 17.4 200.705C17.0533 201.239 16.88 201.879 16.88 202.625C16.88 203.372 17.0533 204.025 17.4 204.585C17.72 205.119 18.1867 205.532 18.8 205.825C19.3867 206.119 20.1067 206.265 20.96 206.265H22.32C23.2533 206.265 24.0533 206.079 24.72 205.705C25.3867 205.332 25.8933 204.799 26.24 204.105C26.56 203.412 26.72 202.572 26.72 201.585C26.72 200.572 26.5867 199.745 26.32 199.105C26.0533 198.439 25.6533 197.745 25.12 197.025L29.88 192.305C31.0267 193.372 31.9067 194.692 32.52 196.265C33.1067 197.812 33.4 199.679 33.4 201.865ZM33.4 173.212C33.4 175.212 33 176.826 32.2 178.053C31.4 179.279 30.16 180.172 28.48 180.732C26.8 181.266 24.6533 181.532 22.04 181.532C19.4533 181.532 17.3333 181.239 15.68 180.652C14 180.066 12.76 179.159 11.96 177.932C11.1333 176.679 10.72 175.106 10.72 173.212C10.72 171.292 11.1733 169.532 12.08 167.932C12.9867 166.332 14.2933 165.052 16 164.092C17.68 163.132 19.6933 162.652 22.04 162.652C24.3867 162.652 26.4133 163.132 28.12 164.092C29.8 165.052 31.1067 166.332 32.04 167.932C32.9467 169.532 33.4 171.292 33.4 173.212ZM33 187.812H3.32L3.32 178.772H14.04L22.04 179.172L30.04 179.212H33V187.812ZM26.36 175.372C26.36 174.706 26.2 174.106 25.88 173.572C25.56 173.039 25.08 172.612 24.44 172.292C23.7733 171.972 22.9733 171.812 22.04 171.812C21.08 171.812 20.2933 171.972 19.68 172.292C19.04 172.612 18.56 173.039 18.24 173.572C17.92 174.106 17.76 174.706 17.76 175.372C17.76 176.039 17.92 176.639 18.24 177.172C18.56 177.706 19.04 178.132 19.68 178.452C20.2933 178.772 21.08 178.932 22.04 178.932C22.9733 178.932 23.7733 178.772 24.44 178.452C25.08 178.132 25.56 177.706 25.88 177.172C26.2 176.639 26.36 176.039 26.36 175.372ZM33 147.532H5L5 133.732C5 130.612 5.57333 127.866 6.72 125.492C7.84 123.119 9.44 121.266 11.52 119.932C13.6 118.599 16.08 117.932 18.96 117.932C21.8667 117.932 24.3733 118.599 26.48 119.932C28.56 121.266 30.1733 123.119 31.32 125.492C32.44 127.866 33 130.612 33 133.732L33 147.532ZM25.64 138.092V134.132C25.64 132.799 25.3867 131.639 24.88 130.652C24.3733 129.639 23.6267 128.852 22.64 128.292C21.6267 127.732 20.4 127.452 18.96 127.452C17.5467 127.452 16.3467 127.732 15.36 128.292C14.3733 128.852 13.6267 129.639 13.12 130.652C12.6133 131.639 12.36 132.799 12.36 134.132V138.092H25.64ZM33.4 102.686C33.4 105.352 32.9067 107.686 31.92 109.686C30.9333 111.659 29.5867 113.192 27.88 114.286C26.1467 115.379 24.2 115.926 22.04 115.926C19.8267 115.926 17.8667 115.392 16.16 114.326C14.4533 113.232 13.12 111.752 12.16 109.886C11.2 107.992 10.72 105.872 10.72 103.526C10.72 101.366 11.1467 99.379 12 97.5656C12.8533 95.7256 14.12 94.259 15.8 93.1656C17.48 92.0456 19.56 91.4856 22.04 91.4856C22.36 91.4856 22.72 91.499 23.12 91.5256C23.4933 91.5523 23.84 91.579 24.16 91.6056L24.16 108.446H19.8L19.8 96.4056L20.96 99.8056C20.1067 99.8056 19.3867 99.9656 18.8 100.286C18.1867 100.579 17.72 100.992 17.4 101.526C17.0533 102.059 16.88 102.699 16.88 103.446C16.88 104.192 17.0533 104.846 17.4 105.406C17.72 105.939 18.1867 106.352 18.8 106.646C19.3867 106.939 20.1067 107.086 20.96 107.086H22.32C23.2533 107.086 24.0533 106.899 24.72 106.526C25.3867 106.152 25.8933 105.619 26.24 104.926C26.56 104.232 26.72 103.392 26.72 102.406C26.72 101.392 26.5867 100.566 26.32 99.9256C26.0533 99.259 25.6533 98.5656 25.12 97.8456L29.88 93.1256C31.0267 94.1923 31.9067 95.5123 32.52 97.0856C33.1067 98.6323 33.4 100.499 33.4 102.686ZM33.4 80.0728C33.4 81.9395 33.2 83.7795 32.8 85.5928C32.4 87.4061 31.88 88.8728 31.24 89.9928L25.28 87.5128C25.8933 86.4728 26.3733 85.2728 26.72 83.9128C27.0667 82.5261 27.24 81.1795 27.24 79.8728C27.24 78.7795 27.1467 78.0461 26.96 77.6728C26.7733 77.2728 26.52 77.0728 26.2 77.0728C25.88 77.0728 25.6533 77.2995 25.52 77.7528C25.36 78.2061 25.24 78.8061 25.16 79.5528C25.08 80.2995 24.9867 81.1261 24.88 82.0328C24.7467 82.9128 24.56 83.8061 24.32 84.7128C24.08 85.6195 23.72 86.4461 23.24 87.1928C22.76 87.9395 22.12 88.5395 21.32 88.9928C20.4933 89.4461 19.4533 89.6728 18.2 89.6728C16.8133 89.6728 15.56 89.2595 14.44 88.4328C13.32 87.5795 12.4267 86.3261 11.76 84.6728C11.0667 82.9928 10.72 80.9261 10.72 78.4728C10.72 76.8728 10.8667 75.2728 11.16 73.6728C11.4533 72.0728 11.9067 70.6995 12.52 69.5528L18.48 72.0328C17.8667 73.1528 17.4533 74.2595 17.24 75.3528C17 76.4195 16.88 77.4195 16.88 78.3528C16.88 79.4995 16.9867 80.2861 17.2 80.7128C17.4133 81.1128 17.6533 81.3128 17.92 81.3128C18.24 81.3128 18.48 81.0861 18.64 80.6328C18.8 80.1795 18.92 79.5795 19 78.8328C19.08 78.0861 19.1867 77.2728 19.32 76.3928C19.4267 75.4861 19.6133 74.5928 19.88 73.7128C20.12 72.8061 20.48 71.9795 20.96 71.2328C21.44 70.4861 22.0933 69.8861 22.92 69.4328C23.72 68.9795 24.7467 68.7528 26 68.7528C27.3067 68.7528 28.5333 69.1661 29.68 69.9928C30.8 70.8195 31.7067 72.0728 32.4 73.7528C33.0667 75.4328 33.4 77.5395 33.4 80.0728ZM33 66.0156H11.12L11.12 56.9756H33V66.0156ZM9.36 61.4956C9.36 63.149 8.92 64.469 8.04 65.4556C7.16 66.4423 6.06667 66.9356 4.76 66.9356C3.45333 66.9356 2.36 66.4423 1.48 65.4556C0.599998 64.469 0.159998 63.149 0.159998 61.4956C0.159998 59.8423 0.573332 58.5223 1.4 57.5356C2.22666 56.549 3.29333 56.0556 4.6 56.0556C5.98666 56.0556 7.13333 56.549 8.04 57.5356C8.92 58.5223 9.36 59.8423 9.36 61.4956ZM41.16 41.8487C41.16 44.0087 40.9333 46.0354 40.48 47.9287C40.0267 49.8221 39.3467 51.4487 38.44 52.8087L32.28 49.7687C32.9467 48.9154 33.4667 47.8354 33.84 46.5287C34.24 45.1954 34.44 43.9421 34.44 42.7687C34.44 40.9021 34.04 39.5687 33.24 38.7687C32.4667 37.9687 31.3467 37.5687 29.88 37.5687H28.04L21.24 37.1687L14.44 37.1287H11.12L11.12 28.5287H28.64C32.88 28.5287 36.0267 29.7021 38.08 32.0487C40.1333 34.3954 41.16 37.6621 41.16 41.8487ZM31.8 43.6087C31.8 45.4487 31.3733 47.1687 30.52 48.7687C29.64 50.3687 28.4133 51.6621 26.84 52.6487C25.2667 53.6354 23.4 54.1287 21.24 54.1287C19.08 54.1287 17.2133 53.6354 15.64 52.6487C14.0667 51.6621 12.8533 50.3687 12 48.7687C11.1467 47.1687 10.72 45.4487 10.72 43.6087C10.72 41.7154 11.0933 40.1687 11.84 38.9687C12.5867 37.7421 13.7467 36.8354 15.32 36.2487C16.8667 35.6621 18.84 35.3687 21.24 35.3687C23.64 35.3687 25.6267 35.6621 27.2 36.2487C28.7467 36.8354 29.9067 37.7421 30.68 38.9687C31.4267 40.1687 31.8 41.7154 31.8 43.6087ZM24.76 41.2087C24.76 40.4887 24.6133 39.8487 24.32 39.2887C24.0267 38.7287 23.6133 38.2887 23.08 37.9687C22.5467 37.6487 21.9333 37.4887 21.24 37.4887C20.52 37.4887 19.9067 37.6487 19.4 37.9687C18.8667 38.2887 18.4667 38.7287 18.2 39.2887C17.9067 39.8487 17.76 40.4887 17.76 41.2087C17.76 41.9021 17.9067 42.5421 18.2 43.1287C18.4667 43.6887 18.8667 44.1421 19.4 44.4887C19.9067 44.8087 20.52 44.9688 21.24 44.9688C21.9333 44.9688 22.5467 44.8087 23.08 44.4887C23.6133 44.1421 24.0267 43.6887 24.32 43.1287C24.6133 42.5421 24.76 41.9021 24.76 41.2087ZM10.72 9.33125C10.72 7.65125 11.0667 6.13125 11.76 4.77125C12.4267 3.41125 13.48 2.34458 14.92 1.57125C16.36 0.771249 18.2267 0.371248 20.52 0.371248H33L33 9.41125H22.08C20.72 9.41125 19.76 9.65125 19.2 10.1312C18.6133 10.6112 18.32 11.2646 18.32 12.0912C18.32 12.7046 18.4667 13.2779 18.76 13.8112C19.0267 14.3179 19.48 14.7312 20.12 15.0512C20.76 15.3446 21.6267 15.4912 22.72 15.4912H33V24.5312H11.12L11.12 15.9312H17.52L15.68 17.6512C14.0267 16.7979 12.7867 15.6512 11.96 14.2112C11.1333 12.7446 10.72 11.1179 10.72 9.33125Z" fill="black"/>
</svg>
